<svg xmlns="http://www.w3.org/2000/svg" width="13" height="16" viewBox="0 0 13 16"><g transform="translate(-1.486)"><path d="M11.6,4.757a3.618,3.618,0,0,1,1.725-3.045A3.725,3.725,0,0,0,10.4.125C9.16,0,7.977.859,7.346.859S5.743.144,4.713.164a3.9,3.9,0,0,0-3.3,2C0,4.618,1.049,8.244,2.421,10.231c.67.97,1.47,2.064,2.52,2.025,1.013-.04,1.394-.654,2.615-.654s1.565.654,2.636.634c1.087-.02,1.778-.991,2.443-1.965a8.814,8.814,0,0,0,1.1-2.277A3.53,3.53,0,0,1,11.6,4.757h0Z" transform="translate(0.745 3.743)" fill-rule="evenodd"/><path d="M2.492,2.556A3.529,3.529,0,0,0,3.321,0,3.575,3.575,0,0,0,.97,1.213,3.35,3.35,0,0,0,.123,3.687,2.959,2.959,0,0,0,2.492,2.556Z" transform="translate(7.843)" fill-rule="evenodd"/></g></svg>