<svg xmlns="http://www.w3.org/2000/svg" width="37.237" height="37.411" viewBox="0 0 37.237 37.411"><g transform="translate(-7.102 -6.898)"><path d="M46.394,36.3H31.984a1.085,1.085,0,1,0,0,2.17H46.393a1.085,1.085,0,0,0,0-2.17Z" transform="translate(-13.469 -16.642)"/><path d="M46.394,47.4H31.984a1.085,1.085,0,1,0,0,2.17H46.393a1.075,1.075,0,0,0,1.085-1.085A1.1,1.1,0,0,0,46.394,47.4Z" transform="translate(-13.469 -22.923)"/><path d="M46.394,59.7H31.984a1.085,1.085,0,1,0,0,2.17H46.393a1.085,1.085,0,0,0,0-2.17Z" transform="translate(-13.469 -29.885)"/><path d="M44.338,25.474A18.618,18.618,0,1,0,25.72,44.092a18.165,18.165,0,0,0,6.207-1.085l8.594,1.3h.173a1.185,1.185,0,0,0,.824-.348,1.059,1.059,0,0,0,.261-1L40.3,37.06a20.016,20.016,0,0,0,2.821-4.818,19.871,19.871,0,0,0,1.214-6.768Zm-3.3,5.99a15.492,15.492,0,0,1-2.821,4.643,1.073,1.073,0,0,0-.217.954l1.216,4.86-7.248-1.085H31.8a1.281,1.281,0,0,0-.39.086,16.052,16.052,0,0,1-5.686,1.041,16.5,16.5,0,1,1,15.319-10.5Z" transform="translate(0)"/></g></svg>