<svg xmlns="http://www.w3.org/2000/svg" width="78.618" height="78.618" viewBox="0 0 78.618 78.618"><g transform="translate(-1043.8 -3252.8)"><g transform="translate(1043.609 3252.609)"><path d="M72.234,68.37,66.46,67.8A39.086,39.086,0,1,0,39.5,78.609a2.171,2.171,0,0,0,0-4.342A34.826,34.826,0,1,1,63.92,64.213l.524-5.358a2.173,2.173,0,1,0-4.327-.416L59.055,69.248a2.156,2.156,0,0,0,1.955,2.371l10.809,1.062c.077,0,.139.015.216.015a2.168,2.168,0,0,0,.2-4.327Z" fill="#33b194" stroke="#33b194" stroke-width="0.4"/><path d="M49.417,10.8a2.169,2.169,0,0,0-2.171,2.171v2.31a2.171,2.171,0,1,0,4.342,0v-2.31A2.169,2.169,0,0,0,49.417,10.8Z" transform="translate(-9.917 -2.203)" fill="#e3483c" stroke="#e3483c" stroke-width="0.4"/><path d="M49.417,80.742a2.169,2.169,0,0,0-2.171,2.171v2.31a2.171,2.171,0,0,0,4.342,0v-2.31A2.169,2.169,0,0,0,49.417,80.742Z" transform="translate(-9.917 -17.007)" fill="#e3483c" stroke="#e3483c" stroke-width="0.4"/><path d="M85.242,51.588a2.171,2.171,0,0,0,0-4.342h-2.31a2.171,2.171,0,0,0,0,4.342Z" transform="translate(-17.011 -9.917)" fill="#e3483c" stroke="#e3483c" stroke-width="0.4"/><path d="M15.3,47.246h-2.31a2.171,2.171,0,1,0,0,4.342H15.3a2.171,2.171,0,1,0,0-4.342Z" transform="translate(-2.207 -9.917)" fill="#e3483c" stroke="#e3483c" stroke-width="0.4"/><path d="M49.24,44.857V27.874a2.171,2.171,0,1,0-4.342,0V42.686H38.324a2.171,2.171,0,0,0,0,4.342h8.746a2.169,2.169,0,0,0,2.171-2.171Z" transform="translate(-7.569 -5.357)" fill="#33b194" stroke="#33b194" stroke-width="0.4"/></g></g></svg>