<svg xmlns="http://www.w3.org/2000/svg" width="6" height="13" viewBox="0 0 6 13"><path d="M42.021,22.65V28.93a.171.171,0,0,0,.169.17h2.319a.171.171,0,0,0,.169-.17V22.536h1.672a.18.18,0,0,0,.169-.156l.141-1.91a.167.167,0,0,0-.169-.184H44.663V18.929a.572.572,0,0,1,.576-.58h1.293a.171.171,0,0,0,.169-.17V16.27a.171.171,0,0,0-.169-.17H44.339a2.329,2.329,0,0,0-2.319,2.334v1.853H40.869a.171.171,0,0,0-.169.17v1.924a.171.171,0,0,0,.169.17h1.152Z" transform="translate(-40.7 -16.1)" fill="#fff" fill-rule="evenodd"/></svg>