<svg xmlns="http://www.w3.org/2000/svg" width="25.925" height="20.929" viewBox="0 0 25.925 20.929"><path d="M13.642,27.579c-2.9,6.8,17.38,6.61,14.542,0-1.806,4.224-12.7,4.224-14.542,0Zm0-4.386c-2.9,6.771,17.38,6.578,14.542,0-1.806,4.224-12.7,4.224-14.542,0ZM13.449,19.9c0,5.449,14.929,5.449,14.929,0C28.378,14.423,13.449,14.423,13.449,19.9ZM2.582,15.81c0,3.676,6.642,4.45,9.544,4C11.9,17,15.059,15.391,17.349,14.842c-2.031-4.74-14.768-3.933-14.768.968Zm.226,7.674C.906,27.87,9.354,28.9,12.127,28.45a3.814,3.814,0,0,1,.451-2c-2.934.58-8.48.064-9.77-2.967Zm0-4.386c-1.9,4.386,6.546,5.417,9.319,4.966a4,4,0,0,1,.451-2.031c-2.934.612-8.48.1-9.77-2.934Z" transform="translate(-2.532 -11.68)" fill-rule="evenodd"/></svg>