<svg xmlns="http://www.w3.org/2000/svg" width="14" height="16" viewBox="0 0 14 16"><g transform="translate(-3.602 -2.649)"><path d="M18.309,9.892,16.565,8.858l-2.1,2.649,2.142,2.7,1.7-1.01a1.964,1.964,0,0,0,1.1-1.655A1.961,1.961,0,0,0,18.309,9.892Z" transform="translate(-1.807 -0.897)"/><path d="M5.2,18.649l6.378-8.038-6.3-7.951c-.02,0-.041-.01-.061-.01-.97,0-1.621.808-1.621,2.013V16.639c0,1.193.644,2,1.6,2.01Z"/><path d="M14.673,7.636,7.5,3.382l5.27,6.655Z" transform="translate(-0.648 -0.106)"/><path d="M12.738,12.746,7.329,19.565,14.686,15.2Z" transform="translate(-0.62 -1.459)"/></g></svg>