<svg xmlns="http://www.w3.org/2000/svg" width="68.483" height="83.96" viewBox="0 0 68.483 83.96"><g transform="translate(-649.3 -3248.24)"><g transform="translate(633.539 3240.25)"><path d="M50,91.25a1.23,1.23,0,0,1-.512-.109c-1.348-.605-33.027-15-33.027-33.43l0-39.109a1.252,1.252,0,0,1,1.492-1.227c11.254,2.2,21.48-.527,31.266-8.352a1.251,1.251,0,0,1,1.563,0c9.785,7.824,20.012,10.555,31.266,8.352A1.252,1.252,0,0,1,83.544,18.6V57.711c0,18.434-31.676,32.824-33.027,33.43A1.261,1.261,0,0,1,50,91.25ZM18.965,20.094V57.711c0,15.637,26.961,28.984,31.035,30.91C54.074,86.7,81.035,73.34,81.035,57.711V20.094c-11.133,1.789-21.312-1-31.035-8.5-9.727,7.5-19.9,10.293-31.035,8.5Z" fill="#33b194" stroke="#33b194" stroke-width="1.4"/><path d="M50,68.18A18.18,18.18,0,1,1,68.18,50,18.2,18.2,0,0,1,50,68.18Zm0-33.859A15.68,15.68,0,1,0,65.68,50,15.7,15.7,0,0,0,50,34.321Z" fill="#e3483c" stroke="#e3483c" stroke-width="1.4"/><path d="M47.082,57.547a1.248,1.248,0,0,1-.883-.367l-4.762-4.762A1.248,1.248,0,0,1,43.2,50.653l3.879,3.879,9.711-9.711a1.248,1.248,0,1,1,1.766,1.766L47.969,57.18a1.257,1.257,0,0,1-.887.367Z" fill="#33b194" stroke="#33b194" stroke-linecap="round" stroke-linejoin="round" stroke-width="1.4"/></g></g></svg>