<svg xmlns="http://www.w3.org/2000/svg" width="13.153" height="10.687" viewBox="0 0 13.153 10.687"><path d="M13.153,1.233a4.865,4.865,0,0,1-1.562.411A2.324,2.324,0,0,0,12.742.164a5.394,5.394,0,0,1-1.726.658A2.871,2.871,0,0,0,9.043,0,2.722,2.722,0,0,0,6.412,2.713a1.219,1.219,0,0,0,.082.575A7.565,7.565,0,0,1,.9.493,2.412,2.412,0,0,0,.575,1.809a2.7,2.7,0,0,0,1.233,2.22A3.445,3.445,0,0,1,.575,3.7h0A2.654,2.654,0,0,0,2.713,6.33a1.222,1.222,0,0,1-.74.164,1.043,1.043,0,0,1-.493-.082A2.664,2.664,0,0,0,4.028,8.3,5.227,5.227,0,0,1,.658,9.454H0a7.313,7.313,0,0,0,4.11,1.233,7.609,7.609,0,0,0,7.645-7.645V2.713A4.779,4.779,0,0,0,13.153,1.233Z" fill="#fff"/></svg>