<svg xmlns="http://www.w3.org/2000/svg" xmlns:xlink="http://www.w3.org/1999/xlink" width="1366" height="520" viewBox="0 0 1366 520">
  <defs>
    <linearGradient id="linear-gradient" x1="0.378" y1="-0.019" x2="0.603" y2="0.938" gradientUnits="objectBoundingBox">
      <stop offset="0" stop-color="#008d36"/>
      <stop offset="0" stop-color="#33b194"/>
      <stop offset="1" stop-color="#003e46"/>
    </linearGradient>
    <clipPath id="clip-path">
      <rect id="Rectangle_3060" data-name="Rectangle 3060" width="1366" height="520" transform="translate(0 3421)" fill="#fff"/>
    </clipPath>
    <linearGradient id="linear-gradient-2" x1="0.435" y1="1.223" x2="0.554" y2="-0.104" gradientUnits="objectBoundingBox">
      <stop offset="0" stop-color="#a3897a"/>
      <stop offset="1" stop-color="#b0485d"/>
    </linearGradient>
    <linearGradient id="linear-gradient-3" x1="0.5" y1="0.245" x2="0.5" y2="0.742" gradientUnits="objectBoundingBox">
      <stop offset="0" stop-color="#fff"/>
      <stop offset="1" stop-color="#dcccca"/>
    </linearGradient>
    <clipPath id="clip-path-2">
      <rect id="Rectangle_568" data-name="Rectangle 568" width="86.971" height="361.359" rx="22.807" fill="url(#linear-gradient)"/>
    </clipPath>
    <linearGradient id="linear-gradient-5" x1="-0.958" y1="0.198" x2="1.197" y2="0.639" xlink:href="#linear-gradient"/>
    <linearGradient id="linear-gradient-6" x1="0.5" y1="-0.21" x2="0.5" y2="1.253" xlink:href="#linear-gradient"/>
    <clipPath id="clip-path-3">
      <rect id="Rectangle_491" data-name="Rectangle 491" width="178.279" height="16.124" fill="#ffce55"/>
    </clipPath>
    <linearGradient id="linear-gradient-8" x1="137.224" y1="1.153" x2="137.247" y2="0.018" gradientUnits="objectBoundingBox">
      <stop offset="0" stop-color="#fad6c7"/>
      <stop offset="1" stop-color="#e4857f"/>
    </linearGradient>
    <linearGradient id="linear-gradient-9" x1="139.693" y1="1.153" x2="139.716" y2="0.02" xlink:href="#linear-gradient-8"/>
    <linearGradient id="linear-gradient-10" x1="0.506" y1="0.784" x2="0.499" y2="0.176" xlink:href="#linear-gradient-8"/>
    <linearGradient id="linear-gradient-11" x1="-0.247" y1="-0.4" x2="0.851" y2="1.078" xlink:href="#linear-gradient-3"/>
    <linearGradient id="linear-gradient-12" x1="0.516" y1="0.786" x2="0.475" y2="0.195" xlink:href="#linear-gradient-8"/>
    <linearGradient id="linear-gradient-13" x1="93.214" y1="-17.61" x2="93.196" y2="-18.139" xlink:href="#linear-gradient-8"/>
    <linearGradient id="linear-gradient-14" x1="0.062" y1="0.285" x2="0.563" y2="0.695" xlink:href="#linear-gradient-3"/>
    <linearGradient id="linear-gradient-15" x1="0.798" y1="-0.44" x2="0.436" y2="0.703" xlink:href="#linear-gradient"/>
    <linearGradient id="linear-gradient-16" x1="0.5" y1="-0.209" x2="0.5" y2="1.649" xlink:href="#linear-gradient"/>
    <linearGradient id="linear-gradient-17" x1="0.865" y1="-0.65" x2="0.502" y2="0.493" xlink:href="#linear-gradient"/>
    <linearGradient id="linear-gradient-18" x1="0.5" y1="-0.492" x2="0.5" y2="1.365" xlink:href="#linear-gradient"/>
    <linearGradient id="linear-gradient-19" x1="0.785" y1="-0.399" x2="0.423" y2="0.744" xlink:href="#linear-gradient"/>
    <linearGradient id="linear-gradient-20" x1="-61.968" y1="20.219" x2="-62.383" y2="18.695" gradientUnits="objectBoundingBox">
      <stop offset="0" stop-color="#008d36"/>
      <stop offset="1" stop-color="#003e46"/>
    </linearGradient>
    <linearGradient id="linear-gradient-21" x1="-77.189" y1="27.918" x2="-75.637" y2="28.893" gradientUnits="objectBoundingBox">
      <stop offset="0" stop-color="#ffef26"/>
      <stop offset="0.018" stop-color="#fee921"/>
      <stop offset="0.102" stop-color="#fdd70e"/>
      <stop offset="0.189" stop-color="#fdcb03"/>
      <stop offset="0.281" stop-color="#fdc800"/>
      <stop offset="0.669" stop-color="#f18f34"/>
      <stop offset="0.888" stop-color="#e95f32"/>
      <stop offset="1" stop-color="#e3312d"/>
    </linearGradient>
    <linearGradient id="linear-gradient-22" x1="0.72" y1="-0.193" x2="0.481" y2="0.56" xlink:href="#linear-gradient"/>
    <linearGradient id="linear-gradient-23" x1="0.5" y1="-0.097" x2="0.5" y2="1.126" xlink:href="#linear-gradient"/>
    <linearGradient id="linear-gradient-24" x1="0.742" y1="-0.262" x2="0.503" y2="0.491" xlink:href="#linear-gradient"/>
    <linearGradient id="linear-gradient-25" x1="0.5" y1="-0.445" x2="0.5" y2="0.778" xlink:href="#linear-gradient"/>
    <linearGradient id="linear-gradient-26" x1="0.757" y1="-0.311" x2="0.518" y2="0.442" xlink:href="#linear-gradient"/>
    <linearGradient id="linear-gradient-27" x1="0.5" y1="-0.711" x2="0.5" y2="0.512" xlink:href="#linear-gradient"/>
    <linearGradient id="linear-gradient-28" x1="0.489" y1="1.01" x2="0.516" y2="-0.412" xlink:href="#linear-gradient-8"/>
    <linearGradient id="linear-gradient-29" x1="0.487" y1="1.153" x2="0.51" y2="0.02" xlink:href="#linear-gradient-8"/>
    <linearGradient id="linear-gradient-30" x1="0.498" y1="1.122" x2="0.52" y2="-0.01" xlink:href="#linear-gradient-8"/>
    <linearGradient id="linear-gradient-31" x1="0.511" y1="0.791" x2="0.49" y2="0.196" xlink:href="#linear-gradient-8"/>
    <linearGradient id="linear-gradient-32" x1="0.466" y1="-0.375" x2="0.512" y2="0.574" xlink:href="#linear-gradient-3"/>
    <linearGradient id="linear-gradient-33" x1="0.417" y1="-0.003" x2="0.544" y2="1.429" xlink:href="#linear-gradient-3"/>
    <linearGradient id="linear-gradient-34" x1="0.432" y1="-0.553" x2="0.521" y2="0.705" xlink:href="#linear-gradient-3"/>
    <linearGradient id="linear-gradient-35" x1="0.186" y1="-0.288" x2="0.818" y2="1.297" xlink:href="#linear-gradient"/>
  </defs>
  <g id="man-usd" transform="translate(0 -3421)" clip-path="url(#clip-path)">
    <path id="Path_3231" data-name="Path 3231" d="M-614.815,388.851S-477.873-133.3-106.19-90.458C63.667-70.878,187.858,146.594,320.32,198.173,477.174,259.25,636,154.853,761.713,168.809c231.514,25.7,89.765,129.848,163.647,132.855s12.8,78.968,12.8,78.968Z" transform="translate(498.706 3563.28)" fill="#c1e7df"/>
    <g id="Group_1330" data-name="Group 1330" transform="translate(-95 532)">
      <g id="Group_548" data-name="Group 548" transform="translate(155.479 3235.641)">
        <rect id="Rectangle_467" data-name="Rectangle 467" width="10.299" height="143.115" fill="url(#linear-gradient-2)"/>
      </g>
      <path id="Path_954" data-name="Path 954" d="M136.211,550.814h0A29.332,29.332,0,0,1,108.752,531.8L92.725,489.152H179.7L163.67,531.8A29.332,29.332,0,0,1,136.211,550.814Z" transform="translate(24.417 2858.771)" fill="url(#linear-gradient-3)"/>
      <g id="Group_576" data-name="Group 576" transform="translate(117.143 2954.543)">
        <rect id="Rectangle_567" data-name="Rectangle 567" width="86.971" height="361.359" rx="22.807" fill="url(#linear-gradient)"/>
        <g id="Group_575" data-name="Group 575" clip-path="url(#clip-path-2)">
          <g id="Group_574" data-name="Group 574" transform="translate(15.436 -85.85)">
            <path id="Path_953" data-name="Path 953" d="M153.228,640.735c-2.013-1.391-49.309-34.49-50.3-70.005-.385-13.767,5.985-25.851,18.932-35.916,19.37-15.056,13.593-28.743,1.714-51.637-11.714-22.58-26.294-50.684,2.661-81.983,22.189-23.987,12.4-39.233.014-58.537-11.853-18.469-26.607-41.455-.067-70.86,11.887-13.17,17.206-26.956,15.81-40.975C139.284,203.653,112.5,183.5,112.231,183.3l7.643-10.357c1.29.949,31.594,23.628,34.919,56.514,1.8,17.813-4.61,34.958-19.054,50.961-19.951,22.1-10.554,36.745,1.343,55.282,12.278,19.126,27.558,42.935-1.4,74.232-22.812,24.658-12.062,45.378-.684,67.312,11.032,21.263,23.534,45.362-5.239,67.729-9.666,7.514-14.234,15.82-13.966,25.393.412,14.8,12.35,30.137,22.292,40.393a170.756,170.756,0,0,0,22.461,19.383Z" transform="translate(-102.91 -172.946)" fill="url(#linear-gradient-5)"/>
          </g>
        </g>
      </g>
    </g>
    <g id="Group_558" data-name="Group 558" transform="translate(1012.992 3679.461)">
      <path id="Path_924" data-name="Path 924" d="M897.659,526.473c8.477-14.017,14.186-27.034,17.492-38.9l-86,15.787,89.488-43.4a61.8,61.8,0,0,0-1.783-12.324l-36.017,3.736,32.472-13.619a47.838,47.838,0,0,0-8.213-12.026l-62.766,39.559,45.55-51.465c-9.016-3.868-19.563-5.635-31.045-5.089L801.32,520.932l34.751-108.889a125.318,125.318,0,0,0-24.133,9.3c-4.246,2.143-8.154,3.95-11.785,5.48l-15.678,102.17V432.075c-6.73,1.529-11.942,1.516-16.008.312l-16.6,106.12,6.884-113.713c-7.541-12.212-5.538-34.969-13.027-50.448l-9.585,109.97-.992-121.9c-5.282-3.111-12.375-4.716-22.076-4.068q-1.675.112-3.228.3l7.256,81.743L694.46,386.927c-13.843,6.172-10.419,32.569-7.381,48.324l32.588,90.99s-19.939-65.186-30.43-60.18l15.418,68.052-36.917-64.746c-10.733,1.295-19.021,3.634-25.3,6.736l62.218,69.727-76.27-57.2c-13.937,25.157,20.981,64.614,20.981,64.614H878.945c1.831-2.313,3.565-4.6,5.257-6.867l-49.929-15.19Z" transform="translate(-1157.628 -291.18)" fill="url(#linear-gradient-6)"/>
      <path id="Path_961" data-name="Path 961" d="M653.286,584.3c-11.39-18.834-19.061-36.324-23.5-52.273L745.34,553.237,625.1,494.916a83.033,83.033,0,0,1,2.4-16.559l48.394,5.02-43.63-18.3a64.278,64.278,0,0,1,11.035-16.159l84.335,53.153-61.2-69.151c12.114-5.2,26.286-7.572,41.713-6.838l74.592,150.77L736.037,430.544a168.386,168.386,0,0,1,32.425,12.49c5.7,2.88,10.956,5.308,15.835,7.363l21.065,137.28V457.461c9.043,2.055,16.045,2.037,21.509.42l22.3,142.588-9.25-152.79c10.133-16.409,7.441-46.986,17.5-67.784L870.3,527.654l1.332-163.793c7.1-4.18,16.627-6.337,29.663-5.467q2.251.15,4.338.4l-9.75,109.833L926.312,396.8c18.6,8.293,14,43.761,9.918,64.93L892.444,583.986s26.791-87.586,40.887-80.86l-20.716,91.437,49.6-87c14.421,1.74,25.557,4.883,34,9.051l-83.6,93.688,102.48-76.859c18.726,33.8-28.191,86.818-28.191,86.818H678.431c-2.46-3.108-4.791-6.176-7.064-9.227l67.087-20.41Z" transform="translate(-1980.1 -360.203)" fill="url(#linear-gradient-6)"/>
    </g>
    <g id="Group_1329" data-name="Group 1329" transform="translate(-761 539)">
      <g id="Group_573" data-name="Group 573" transform="translate(1030.68 2943.269)">
        <g id="Group_560" data-name="Group 560" transform="translate(7.006 96.745)">
          <rect id="Rectangle_480" data-name="Rectangle 480" width="178.279" height="16.124" fill="#ffce55"/>
          <g id="Group_559" data-name="Group 559" clip-path="url(#clip-path-3)">
            <rect id="Rectangle_481" data-name="Rectangle 481" width="27.246" height="79.547" transform="translate(151.033 -23.113)" fill="#f7a848"/>
            <rect id="Rectangle_482" data-name="Rectangle 482" width="17.372" height="67.359" transform="translate(129.976 -27.048)" fill="#f7a848"/>
            <rect id="Rectangle_483" data-name="Rectangle 483" width="11.055" height="50.708" transform="translate(114.71 -26.522)" fill="#f7a848"/>
            <rect id="Rectangle_484" data-name="Rectangle 484" width="5.264" height="24.186" transform="translate(106.814 -8.062)" fill="#f7a848"/>
            <rect id="Rectangle_485" data-name="Rectangle 485" width="8.423" height="31.175" transform="translate(94.18 -6.989)" fill="#f7a848"/>
            <rect id="Rectangle_486" data-name="Rectangle 486" width="2.856" height="23.689" transform="translate(86.284 -3.623)" fill="#f7a848"/>
            <rect id="Rectangle_487" data-name="Rectangle 487" width="1.053" height="22.636" transform="translate(61.542 -3.623)" fill="#f7a848"/>
            <rect id="Rectangle_488" data-name="Rectangle 488" width="1.053" height="29.479" transform="translate(30.221 -9.677)" fill="#f7a848"/>
            <rect id="Rectangle_489" data-name="Rectangle 489" width="1.316" height="26.321" transform="translate(12.849 -6.255)" fill="#f7a848"/>
            <rect id="Rectangle_490" data-name="Rectangle 490" width="6.843" height="30.795" transform="translate(-3.207 -10.203)" fill="#f7a848"/>
            <path id="Path_925" data-name="Path 925" d="M781.126,271.3,647.992,347.1l89.139,1.579,92.425-66.328Z" transform="translate(-647.992 -302.56)" fill="#f6f6f6" opacity="0.3"/>
          </g>
        </g>
        <g id="Group_562" data-name="Group 562" transform="translate(40.227 80.621)">
          <rect id="Rectangle_492" data-name="Rectangle 492" width="178.279" height="16.124" fill="#ffce55"/>
          <g id="Group_561" data-name="Group 561" clip-path="url(#clip-path-3)">
            <rect id="Rectangle_493" data-name="Rectangle 493" width="27.246" height="79.547" transform="translate(151.033 -23.113)" fill="#f7a848"/>
            <rect id="Rectangle_494" data-name="Rectangle 494" width="17.372" height="67.359" transform="translate(129.976 -27.048)" fill="#f7a848"/>
            <rect id="Rectangle_495" data-name="Rectangle 495" width="11.055" height="50.708" transform="translate(114.71 -26.522)" fill="#f7a848"/>
            <rect id="Rectangle_496" data-name="Rectangle 496" width="5.264" height="24.186" transform="translate(106.814 -8.062)" fill="#f7a848"/>
            <rect id="Rectangle_497" data-name="Rectangle 497" width="8.423" height="31.175" transform="translate(94.18 -6.989)" fill="#f7a848"/>
            <rect id="Rectangle_498" data-name="Rectangle 498" width="2.856" height="23.689" transform="translate(86.284 -3.623)" fill="#f7a848"/>
            <rect id="Rectangle_499" data-name="Rectangle 499" width="1.053" height="22.636" transform="translate(61.543 -3.623)" fill="#f7a848"/>
            <rect id="Rectangle_500" data-name="Rectangle 500" width="1.053" height="29.479" transform="translate(30.221 -9.677)" fill="#f7a848"/>
            <rect id="Rectangle_501" data-name="Rectangle 501" width="1.316" height="26.321" transform="translate(12.849 -6.255)" fill="#f7a848"/>
            <rect id="Rectangle_502" data-name="Rectangle 502" width="6.844" height="30.795" transform="translate(-3.207 -10.203)" fill="#f7a848"/>
            <path id="Path_926" data-name="Path 926" d="M803.046,260.662l-133.135,75.8,89.14,1.579,92.425-66.328Z" transform="translate(-669.911 -291.921)" fill="#f6f6f6" opacity="0.3"/>
          </g>
        </g>
        <g id="Group_564" data-name="Group 564" transform="translate(20.615 64.497)">
          <rect id="Rectangle_504" data-name="Rectangle 504" width="178.279" height="16.124" fill="#ffce55"/>
          <g id="Group_563" data-name="Group 563" clip-path="url(#clip-path-3)">
            <rect id="Rectangle_505" data-name="Rectangle 505" width="27.246" height="79.547" transform="translate(151.033 -23.113)" fill="#f7a848"/>
            <rect id="Rectangle_506" data-name="Rectangle 506" width="17.372" height="67.359" transform="translate(129.976 -27.048)" fill="#f7a848"/>
            <rect id="Rectangle_507" data-name="Rectangle 507" width="11.055" height="50.708" transform="translate(114.71 -26.522)" fill="#f7a848"/>
            <rect id="Rectangle_508" data-name="Rectangle 508" width="5.264" height="24.186" transform="translate(106.814 -8.062)" fill="#f7a848"/>
            <rect id="Rectangle_509" data-name="Rectangle 509" width="8.423" height="31.175" transform="translate(94.18 -6.989)" fill="#f7a848"/>
            <rect id="Rectangle_510" data-name="Rectangle 510" width="2.856" height="23.689" transform="translate(86.284 -3.623)" fill="#f7a848"/>
            <rect id="Rectangle_511" data-name="Rectangle 511" width="1.053" height="22.636" transform="translate(61.542 -3.623)" fill="#f7a848"/>
            <rect id="Rectangle_512" data-name="Rectangle 512" width="1.053" height="29.479" transform="translate(30.221 -9.676)" fill="#f7a848"/>
            <rect id="Rectangle_513" data-name="Rectangle 513" width="1.316" height="26.321" transform="translate(12.849 -6.255)" fill="#f7a848"/>
            <rect id="Rectangle_514" data-name="Rectangle 514" width="6.843" height="30.795" transform="translate(-3.207 -10.203)" fill="#f7a848"/>
            <path id="Path_927" data-name="Path 927" d="M790.106,250.023l-133.135,75.8,89.14,1.579,92.425-66.328Z" transform="translate(-656.971 -281.282)" fill="#f6f6f6" opacity="0.3"/>
          </g>
        </g>
        <g id="Group_566" data-name="Group 566" transform="translate(44.522 48.372)">
          <rect id="Rectangle_516" data-name="Rectangle 516" width="178.279" height="16.124" fill="#ffce55"/>
          <g id="Group_565" data-name="Group 565" clip-path="url(#clip-path-3)">
            <rect id="Rectangle_517" data-name="Rectangle 517" width="27.246" height="79.547" transform="translate(151.033 -23.113)" fill="#f7a848"/>
            <rect id="Rectangle_518" data-name="Rectangle 518" width="17.372" height="67.359" transform="translate(129.976 -27.048)" fill="#f7a848"/>
            <rect id="Rectangle_519" data-name="Rectangle 519" width="11.055" height="50.708" transform="translate(114.71 -26.522)" fill="#f7a848"/>
            <rect id="Rectangle_520" data-name="Rectangle 520" width="5.264" height="24.186" transform="translate(106.814 -8.062)" fill="#f7a848"/>
            <rect id="Rectangle_521" data-name="Rectangle 521" width="8.423" height="31.175" transform="translate(94.18 -6.989)" fill="#f7a848"/>
            <rect id="Rectangle_522" data-name="Rectangle 522" width="2.856" height="23.689" transform="translate(86.284 -3.623)" fill="#f7a848"/>
            <rect id="Rectangle_523" data-name="Rectangle 523" width="1.053" height="22.636" transform="translate(61.542 -3.623)" fill="#f7a848"/>
            <rect id="Rectangle_524" data-name="Rectangle 524" width="1.053" height="29.479" transform="translate(30.221 -9.676)" fill="#f7a848"/>
            <rect id="Rectangle_525" data-name="Rectangle 525" width="1.316" height="26.321" transform="translate(12.849 -6.255)" fill="#f7a848"/>
            <rect id="Rectangle_526" data-name="Rectangle 526" width="6.844" height="30.795" transform="translate(-3.207 -10.203)" fill="#f7a848"/>
            <path id="Path_928" data-name="Path 928" d="M805.88,239.384l-133.135,75.8,89.14,1.579,92.425-66.328Z" transform="translate(-672.746 -270.643)" fill="#f6f6f6" opacity="0.3"/>
          </g>
        </g>
        <g id="Group_568" data-name="Group 568" transform="translate(57.777 32.248)">
          <rect id="Rectangle_528" data-name="Rectangle 528" width="178.279" height="16.124" fill="#ffce55"/>
          <g id="Group_567" data-name="Group 567" clip-path="url(#clip-path-3)">
            <rect id="Rectangle_529" data-name="Rectangle 529" width="27.246" height="79.548" transform="translate(151.033 -23.113)" fill="#f7a848"/>
            <rect id="Rectangle_530" data-name="Rectangle 530" width="17.372" height="67.359" transform="translate(129.976 -27.048)" fill="#f7a848"/>
            <rect id="Rectangle_531" data-name="Rectangle 531" width="11.055" height="50.708" transform="translate(114.71 -26.522)" fill="#f7a848"/>
            <rect id="Rectangle_532" data-name="Rectangle 532" width="5.264" height="24.186" transform="translate(106.814 -8.062)" fill="#f7a848"/>
            <rect id="Rectangle_533" data-name="Rectangle 533" width="8.423" height="31.175" transform="translate(94.18 -6.989)" fill="#f7a848"/>
            <rect id="Rectangle_534" data-name="Rectangle 534" width="2.856" height="23.689" transform="translate(86.284 -3.623)" fill="#f7a848"/>
            <rect id="Rectangle_535" data-name="Rectangle 535" width="1.053" height="22.636" transform="translate(61.542 -3.623)" fill="#f7a848"/>
            <rect id="Rectangle_536" data-name="Rectangle 536" width="1.053" height="29.479" transform="translate(30.221 -9.677)" fill="#f7a848"/>
            <rect id="Rectangle_537" data-name="Rectangle 537" width="1.316" height="26.321" transform="translate(12.849 -6.255)" fill="#f7a848"/>
            <rect id="Rectangle_538" data-name="Rectangle 538" width="6.843" height="30.795" transform="translate(-3.207 -10.203)" fill="#f7a848"/>
            <path id="Path_929" data-name="Path 929" d="M814.626,228.745l-133.135,75.8,89.139,1.579L863.056,239.8Z" transform="translate(-681.491 -260.004)" fill="#f6f6f6" opacity="0.3"/>
          </g>
        </g>
        <g id="Group_570" data-name="Group 570" transform="translate(0 16.124)">
          <rect id="Rectangle_540" data-name="Rectangle 540" width="178.279" height="16.124" fill="#ffce55"/>
          <g id="Group_569" data-name="Group 569" clip-path="url(#clip-path-3)">
            <rect id="Rectangle_541" data-name="Rectangle 541" width="27.246" height="79.548" transform="translate(151.033 -23.113)" fill="#f7a848"/>
            <rect id="Rectangle_542" data-name="Rectangle 542" width="17.372" height="67.359" transform="translate(129.976 -27.048)" fill="#f7a848"/>
            <rect id="Rectangle_543" data-name="Rectangle 543" width="11.055" height="50.708" transform="translate(114.71 -26.522)" fill="#f7a848"/>
            <rect id="Rectangle_544" data-name="Rectangle 544" width="5.264" height="24.186" transform="translate(106.814 -8.062)" fill="#f7a848"/>
            <rect id="Rectangle_545" data-name="Rectangle 545" width="8.423" height="31.175" transform="translate(94.18 -6.989)" fill="#f7a848"/>
            <rect id="Rectangle_546" data-name="Rectangle 546" width="2.856" height="23.689" transform="translate(86.284 -3.623)" fill="#f7a848"/>
            <rect id="Rectangle_547" data-name="Rectangle 547" width="1.053" height="22.636" transform="translate(61.542 -3.623)" fill="#f7a848"/>
            <rect id="Rectangle_548" data-name="Rectangle 548" width="1.053" height="29.479" transform="translate(30.221 -9.677)" fill="#f7a848"/>
            <rect id="Rectangle_549" data-name="Rectangle 549" width="1.316" height="26.321" transform="translate(12.849 -6.255)" fill="#f7a848"/>
            <rect id="Rectangle_550" data-name="Rectangle 550" width="6.843" height="30.795" transform="translate(-3.207 -10.203)" fill="#f7a848"/>
            <path id="Path_930" data-name="Path 930" d="M776.5,218.106l-133.135,75.8,89.139,1.579,92.425-66.328Z" transform="translate(-643.369 -249.365)" fill="#f6f6f6" opacity="0.3"/>
          </g>
        </g>
        <g id="Group_572" data-name="Group 572" transform="translate(35.744)">
          <rect id="Rectangle_552" data-name="Rectangle 552" width="178.279" height="16.124" fill="#ffce55"/>
          <g id="Group_571" data-name="Group 571" clip-path="url(#clip-path-3)">
            <rect id="Rectangle_553" data-name="Rectangle 553" width="27.246" height="79.548" transform="translate(151.033 -23.113)" fill="#f7a848"/>
            <rect id="Rectangle_554" data-name="Rectangle 554" width="17.372" height="67.359" transform="translate(129.976 -27.048)" fill="#f7a848"/>
            <rect id="Rectangle_555" data-name="Rectangle 555" width="11.055" height="50.708" transform="translate(114.71 -26.522)" fill="#f7a848"/>
            <rect id="Rectangle_556" data-name="Rectangle 556" width="5.264" height="24.186" transform="translate(106.814 -8.062)" fill="#f7a848"/>
            <rect id="Rectangle_557" data-name="Rectangle 557" width="8.423" height="31.175" transform="translate(94.18 -6.989)" fill="#f7a848"/>
            <rect id="Rectangle_558" data-name="Rectangle 558" width="2.856" height="23.689" transform="translate(86.284 -3.623)" fill="#f7a848"/>
            <rect id="Rectangle_559" data-name="Rectangle 559" width="1.053" height="22.636" transform="translate(61.542 -3.623)" fill="#f7a848"/>
            <rect id="Rectangle_560" data-name="Rectangle 560" width="1.053" height="29.479" transform="translate(30.221 -9.677)" fill="#f7a848"/>
            <rect id="Rectangle_561" data-name="Rectangle 561" width="1.316" height="26.321" transform="translate(12.849 -6.255)" fill="#f7a848"/>
            <rect id="Rectangle_562" data-name="Rectangle 562" width="6.843" height="30.795" transform="translate(-3.207 -10.203)" fill="#f7a848"/>
            <path id="Path_931" data-name="Path 931" d="M800.088,207.467l-133.135,75.8,89.14,1.579,92.425-66.328Z" transform="translate(-666.953 -238.726)" fill="#f6f6f6" opacity="0.3"/>
          </g>
        </g>
      </g>
      <path id="Path_932" data-name="Path 932" d="M781.824,499.733l4.775,47.953H745l31.115-13.335.3-4.135-4.393-30.484Z" transform="translate(439.71 2855.226)" fill="url(#linear-gradient-8)"/>
      <path id="Path_933" data-name="Path 933" d="M784.807,519.505l1.791,17.987H745l31.115-13.335.3-4.135Z" transform="translate(439.71 2865.419)" fill="#1d1d1b"/>
      <path id="Path_934" data-name="Path 934" d="M752.588,499.733v47.953h-41.6l31.114-13.335.3-4.135,2.243-30.484Z" transform="translate(422.175 2855.226)" fill="url(#linear-gradient-9)"/>
      <path id="Path_935" data-name="Path 935" d="M752.588,519.847v17.469h-41.6l31.114-13.335.3-4.135Z" transform="translate(422.175 2865.596)" fill="#1d1d1b"/>
      <path id="Path_936" data-name="Path 936" d="M721.567,387.747l9.664,177.617h25.315l3.912-177.617Z" transform="translate(427.627 2797.489)" fill="#1d1d1b"/>
      <path id="Path_937" data-name="Path 937" d="M727.943,392.347l47.365,180.475h24.907L774.9,395.205S745.5,347.841,727.943,392.347Z" transform="translate(430.915 2790.031)" fill="#3c3c3b"/>
      <path id="Path_938" data-name="Path 938" d="M754.435,341.16c-4.442,1.994-10.57,3.578-19.026,4.351a41.129,41.129,0,0,1-20.172-3.334c-24.047-10.26-38.479-39.611-38.479-39.611h67.365l10.659,10.826,10.569,10.724S768.867,334.723,754.435,341.16Z" transform="translate(404.525 2753.573)" fill="url(#linear-gradient-10)"/>
      <path id="Path_939" data-name="Path 939" d="M742.284,313.392l-.347,27.768-.1,7.7L701,353.672l1.738-11.5,6-39.611h22.889Z" transform="translate(417.024 2753.573)" fill="url(#linear-gradient-11)"/>
      <path id="Path_940" data-name="Path 940" d="M810.384,353.071a151.383,151.383,0,0,1-9.991,35.814,211.206,211.206,0,0,0-9.539,22.927c-.012.038-.026.064-.038.1-6.179,17.468-12.526,42.083-9.475,63.658H724.713l-3.63-33.832v-.012l-5.626-52.3,4.621-22.761,3-14.8L735.062,339.4l18.513,7.081s26.724-3.155,24.6-36.51v-.012c-1.056-16.8-9.436-41.234-32.223-76.789l-26.634.412,22.206-16.2,15.307,8.986S821.906,273.721,810.384,353.071Z" transform="translate(424.477 2709.657)" fill="url(#linear-gradient-12)"/>
      <path id="Path_952" data-name="Path 952" d="M715.794,322.371l.236-4.312-12.679-20.751c35.228-47.809,44.414,10.448,44.414,10.448l-19.946,29.6L717.884,321.1Z" transform="translate(418.236 2741.148)" fill="url(#linear-gradient-13)"/>
      <path id="Path_955" data-name="Path 955" d="M734.542,300.08s-33.755,45.014-53.352,13.8,72.271-38.3,72.271-38.3l7.143,33.664-6.462.155s-7.078-21.841-10.344-14.763,0,11.978,0,11.978Z" transform="translate(405.396 2739.66)" fill="#3c3c3b"/>
      <path id="Path_956" data-name="Path 956" d="M822.164,337.347l-31.309,42.971-.026.038-.012.065c-6.179,17.468-12.526,42.083-9.475,63.658H724.713l-9.256-8.3,5.626-25.528v-.012l-5.626-52.3,3.862-24.279s.27.593.759,1.519c3.025,5.729,14.689,24.369,25.695-4.738l7.8-15.447,24.6-36.51,32.209,43.1Z" transform="translate(424.477 2741.153)" fill="url(#linear-gradient-14)"/>
    </g>
    <g id="Group_557" data-name="Group 557" transform="translate(86.316 3607.466)">
      <g id="Group_549" data-name="Group 549" transform="translate(89.124 12.924)">
        <rect id="Rectangle_468" data-name="Rectangle 468" width="29.028" height="60.207" transform="matrix(0.787, 0.617, -0.617, 0.787, 37.166, 0)" fill="#33b194"/>
        <rect id="Rectangle_469" data-name="Rectangle 469" width="24.777" height="55.727" transform="matrix(0.787, 0.617, -0.617, 0.787, 37.4, 3.145)" fill="url(#linear-gradient-15)"/>
        <path id="Path_909" data-name="Path 909" d="M606.47,352.489a11.056,11.056,0,1,1-1.873-15.522A11.057,11.057,0,0,1,606.47,352.489Z" transform="translate(-568.338 -312.297)" fill="url(#linear-gradient-16)"/>
        <path id="Path_910" data-name="Path 910" d="M599.5,340.517a6.669,6.669,0,0,0-2.446,1.373l-2.1,1.688a9.015,9.015,0,0,1-1.708,1.187,1.285,1.285,0,0,1-1.393-.161,1.546,1.546,0,0,1-.618-1.419,3.557,3.557,0,0,1,.83-1.858,4.146,4.146,0,0,1,1.441-1.238,2.072,2.072,0,0,1,1.435-.156,1.49,1.49,0,0,0,.714-2.893,4.156,4.156,0,0,0-2.007.07,6.332,6.332,0,0,0-2.716,1.578l-.809-.63A.915.915,0,1,0,589,339.5l.762.594a5.858,5.858,0,0,0-1.231,3.71,4.3,4.3,0,0,0,1.723,3.218,3.644,3.644,0,0,0,3.481.8,10.072,10.072,0,0,0,2.921-1.882l1.275-1.058a7.075,7.075,0,0,1,1.829-1.208,1.277,1.277,0,0,1,1.306.189,1.74,1.74,0,0,1,.547,2.12,5.752,5.752,0,0,1-.935,1.6,3.311,3.311,0,0,1-2.366,1.531,2.123,2.123,0,0,1-.691-.1,1.469,1.469,0,0,0-1.575.518l-.024.032a1.482,1.482,0,0,0,.787,2.355,4.286,4.286,0,0,0,2.044-.023,6.723,6.723,0,0,0,3.3-2.134l1.413,1.1a.915.915,0,1,0,1.126-1.443l-1.413-1.1a6.133,6.133,0,0,0,1.162-3.63,4.288,4.288,0,0,0-1.711-3.342A3.658,3.658,0,0,0,599.5,340.517Z" transform="translate(-567.409 -311.09)" fill="#f7a848"/>
      </g>
      <g id="Group_550" data-name="Group 550" transform="translate(55.615 18.692)">
        <rect id="Rectangle_470" data-name="Rectangle 470" width="29.028" height="60.207" transform="translate(0 8.243) rotate(-16.496)" fill="#33b194"/>
        <rect id="Rectangle_471" data-name="Rectangle 471" width="24.777" height="55.727" transform="translate(2.7 9.873) rotate(-16.496)" fill="url(#linear-gradient-17)"/>
        <path id="Path_911" data-name="Path 911" d="M581.839,346.662A11.056,11.056,0,1,1,568.1,339.2,11.058,11.058,0,0,1,581.839,346.662Z" transform="translate(-548.511 -315.934)" fill="url(#linear-gradient-18)"/>
        <path id="Path_912" data-name="Path 912" d="M569.123,343.908a6.659,6.659,0,0,0-.3,2.789l.161,2.692a9.076,9.076,0,0,1-.023,2.081,1.286,1.286,0,0,1-.938,1.041,1.54,1.54,0,0,1-1.514-.318,3.54,3.54,0,0,1-1.034-1.752,4.14,4.14,0,0,1-.176-1.891,2.072,2.072,0,0,1,.7-1.261,1.491,1.491,0,0,0-1.946-2.258,4.158,4.158,0,0,0-1.1,1.678,6.3,6.3,0,0,0-.286,3.127l-.984.3a.915.915,0,0,0,.526,1.753l.925-.277a5.86,5.86,0,0,0,2.311,3.151,4.3,4.3,0,0,0,3.622.459,3.647,3.647,0,0,0,2.666-2.378,10.085,10.085,0,0,0,.156-3.469l-.124-1.654a7.118,7.118,0,0,1,.074-2.19,1.28,1.28,0,0,1,.911-.956,1.74,1.74,0,0,1,2.045.782,5.72,5.72,0,0,1,.761,1.687,3.314,3.314,0,0,1-.121,2.814,2.116,2.116,0,0,1-.483.5,1.471,1.471,0,0,0-.49,1.585l.012.038a1.484,1.484,0,0,0,2.376.723,4.292,4.292,0,0,0,1.164-1.681,6.725,6.725,0,0,0,.174-3.928l1.714-.514a.915.915,0,1,0-.524-1.754l-1.716.514a6.126,6.126,0,0,0-2.285-3.049,4.287,4.287,0,0,0-3.715-.541A3.652,3.652,0,0,0,569.123,343.908Z" transform="translate(-548.07 -314.488)" fill="#f7a848"/>
      </g>
      <g id="Group_551" data-name="Group 551" transform="translate(136.145 16.059)">
        <rect id="Rectangle_472" data-name="Rectangle 472" width="29.028" height="60.207" transform="translate(28.967 0) rotate(28.758)" fill="#33b194"/>
        <rect id="Rectangle_473" data-name="Rectangle 473" width="24.777" height="55.727" transform="translate(29.709 3.065) rotate(28.758)" fill="url(#linear-gradient-19)"/>
        <path id="Path_913" data-name="Path 913" d="M636.729,353.588a11.056,11.056,0,1,1-4.374-15.01A11.057,11.057,0,0,1,636.729,353.588Z" transform="translate(-600.272 -314.089)" fill="url(#linear-gradient-20)"/>
        <path id="Path_914" data-name="Path 914" d="M628.326,342.613a6.668,6.668,0,0,0-2.19,1.752l-1.8,2.01a9.088,9.088,0,0,1-1.493,1.449,1.286,1.286,0,0,1-1.4.067,1.542,1.542,0,0,1-.841-1.3,3.546,3.546,0,0,1,.518-1.969,4.116,4.116,0,0,1,1.22-1.455,2.075,2.075,0,0,1,1.39-.389,1.49,1.49,0,1,0,.234-2.971,4.168,4.168,0,0,0-1.967.4,6.314,6.314,0,0,0-2.423,2l-.9-.491a.915.915,0,0,0-.874,1.608l.847.462a5.846,5.846,0,0,0-.611,3.86,4.3,4.3,0,0,0,2.223,2.895,3.647,3.647,0,0,0,3.565.22,10.057,10.057,0,0,0,2.575-2.331l1.087-1.253a7.113,7.113,0,0,1,1.608-1.488,1.279,1.279,0,0,1,1.32-.026,1.738,1.738,0,0,1,.884,2,5.735,5.735,0,0,1-.662,1.728,3.319,3.319,0,0,1-2.084,1.9,2.1,2.1,0,0,1-.7.011,1.47,1.47,0,0,0-1.47.768l-.02.035a1.484,1.484,0,0,0,1.159,2.2,4.3,4.3,0,0,0,2.014-.356,6.74,6.74,0,0,0,2.913-2.643l1.572.858a.916.916,0,0,0,.876-1.608l-1.573-.856a6.125,6.125,0,0,0,.558-3.771,4.29,4.29,0,0,0-2.232-3.019A3.662,3.662,0,0,0,628.326,342.613Z" transform="translate(-599.58 -312.753)" fill="url(#linear-gradient-21)"/>
      </g>
      <g id="Group_552" data-name="Group 552" transform="translate(69.766 0)">
        <rect id="Rectangle_474" data-name="Rectangle 474" width="44.098" height="91.463" transform="matrix(0.978, -0.206, 0.206, 0.978, 0, 9.106)" fill="#33b194"/>
        <rect id="Rectangle_475" data-name="Rectangle 475" width="37.64" height="84.657" transform="translate(3.89 11.902) rotate(-11.917)" fill="url(#linear-gradient-22)"/>
        <path id="Path_915" data-name="Path 915" d="M604.621,347.037a16.8,16.8,0,1,1-19.9-12.966A16.795,16.795,0,0,1,604.621,347.037Z" transform="translate(-556.882 -299.838)" fill="url(#linear-gradient-23)"/>
        <path id="Path_916" data-name="Path 916" d="M585.618,341.275a10.12,10.12,0,0,0-.788,4.188l-.083,4.1a13.712,13.712,0,0,1-.286,3.148,1.949,1.949,0,0,1-1.546,1.463,2.344,2.344,0,0,1-2.255-.664,5.387,5.387,0,0,1-1.353-2.78,6.306,6.306,0,0,1-.035-2.886,3.149,3.149,0,0,1,1.217-1.825,2.263,2.263,0,0,0-2.672-3.654,6.332,6.332,0,0,0-1.876,2.405,9.6,9.6,0,0,0-.812,4.7l-1.525.327a1.39,1.39,0,1,0,.583,2.719l1.434-.308a8.892,8.892,0,0,0,3.118,5.053,6.533,6.533,0,0,0,5.429,1.134,5.541,5.541,0,0,0,4.326-3.277,15.327,15.327,0,0,0,.658-5.236l.012-2.517a10.784,10.784,0,0,1,.379-3.307,1.941,1.941,0,0,1,1.494-1.338,2.647,2.647,0,0,1,3,1.432,8.764,8.764,0,0,1,.946,2.646q.6,2.8-.524,4.248a3.188,3.188,0,0,1-.793.7,2.233,2.233,0,0,0-.933,2.342l.012.058a2.254,2.254,0,0,0,3.512,1.384,6.506,6.506,0,0,0,1.967-2.4,10.209,10.209,0,0,0,.74-5.927l2.66-.571a1.39,1.39,0,0,0-.583-2.719l-2.66.57a9.3,9.3,0,0,0-3.092-4.894,6.513,6.513,0,0,0-5.559-1.27A5.56,5.56,0,0,0,585.618,341.275Z" transform="translate(-556.307 -297.547)" fill="#f7a848"/>
      </g>
      <g id="Group_553" data-name="Group 553" transform="translate(108.889 11.188)">
        <rect id="Rectangle_476" data-name="Rectangle 476" width="44.098" height="91.463" transform="matrix(0.967, 0.253, -0.253, 0.967, 23.184, 0)" fill="#33b194"/>
        <rect id="Rectangle_477" data-name="Rectangle 477" width="37.64" height="84.657" transform="matrix(0.967, 0.253, -0.253, 0.967, 25.41, 4.242)" fill="url(#linear-gradient-24)"/>
        <path id="Path_917" data-name="Path 917" d="M631.081,362.482a16.8,16.8,0,1,1-11.99-20.5A16.8,16.8,0,0,1,631.081,362.482Z" transform="translate(-582.268 -307.046)" fill="url(#linear-gradient-25)"/>
        <path id="Path_918" data-name="Path 918" d="M615.536,348.7a10.147,10.147,0,0,0-2.58,3.39l-1.908,3.625a13.8,13.8,0,0,1-1.666,2.687,1.95,1.95,0,0,1-2.037.615,2.34,2.34,0,0,1-1.719-1.6,5.378,5.378,0,0,1,.035-3.092,6.266,6.266,0,0,1,1.259-2.595,3.139,3.139,0,0,1,1.905-1.087,2.263,2.263,0,1,0-.753-4.463,6.314,6.314,0,0,0-2.754,1.311,9.574,9.574,0,0,0-2.831,3.839l-1.51-.391a1.39,1.39,0,0,0-.7,2.692l1.42.368a8.9,8.9,0,0,0,.526,5.914,6.527,6.527,0,0,0,4.347,3.445,5.541,5.541,0,0,0,5.335-.993,15.358,15.358,0,0,0,2.933-4.388l1.138-2.246a10.722,10.722,0,0,1,1.819-2.787,1.941,1.941,0,0,1,1.935-.527,2.644,2.644,0,0,1,2.043,2.625,8.678,8.678,0,0,1-.339,2.789q-.716,2.774-2.37,3.565a3.176,3.176,0,0,1-1.025.274,2.232,2.232,0,0,0-1.882,1.676l-.015.058a2.252,2.252,0,0,0,2.519,2.808,6.5,6.5,0,0,0,2.837-1.268,10.208,10.208,0,0,0,3.315-4.968l2.634.68a1.391,1.391,0,1,0,.7-2.693l-2.633-.681a9.319,9.319,0,0,0-.573-5.761,6.518,6.518,0,0,0-4.4-3.625A5.558,5.558,0,0,0,615.536,348.7Z" transform="translate(-581.646 -304.618)" fill="#f7a848"/>
      </g>
      <g id="Group_554" data-name="Group 554" transform="translate(131.287 20.61)">
        <rect id="Rectangle_478" data-name="Rectangle 478" width="44.098" height="91.463" transform="translate(56.46 0) rotate(38.12)" fill="#33b194"/>
        <rect id="Rectangle_479" data-name="Rectangle 479" width="37.64" height="84.657" transform="translate(56.816 4.777) rotate(38.119)" fill="url(#linear-gradient-26)"/>
        <path id="Path_919" data-name="Path 919" d="M650.84,374.486a16.8,16.8,0,1,1-2.846-23.582A16.795,16.795,0,0,1,650.84,374.486Z" transform="translate(-592.912 -313.429)" fill="url(#linear-gradient-27)"/>
        <path id="Path_920" data-name="Path 920" d="M640.252,356.3a10.17,10.17,0,0,0-3.716,2.085l-3.192,2.567a13.78,13.78,0,0,1-2.6,1.8,1.949,1.949,0,0,1-2.114-.246,2.338,2.338,0,0,1-.94-2.154,5.38,5.38,0,0,1,1.261-2.824,6.292,6.292,0,0,1,2.188-1.879,3.144,3.144,0,0,1,2.18-.239,2.264,2.264,0,1,0,1.085-4.4,6.325,6.325,0,0,0-3.048.108,9.574,9.574,0,0,0-4.124,2.4l-1.231-.959a1.39,1.39,0,1,0-1.71,2.193l1.156.9a8.9,8.9,0,0,0-1.87,5.636,6.526,6.526,0,0,0,2.619,4.888,5.533,5.533,0,0,0,5.288,1.211,15.326,15.326,0,0,0,4.438-2.858l1.937-1.608a10.774,10.774,0,0,1,2.776-1.834,1.944,1.944,0,0,1,1.986.286,2.644,2.644,0,0,1,.831,3.221,8.7,8.7,0,0,1-1.42,2.425q-1.759,2.257-3.592,2.328a3.242,3.242,0,0,1-1.05-.156,2.228,2.228,0,0,0-2.393.788l-.038.047a2.254,2.254,0,0,0,1.2,3.58,6.517,6.517,0,0,0,3.107-.036,10.216,10.216,0,0,0,5.016-3.24L646.428,372a1.39,1.39,0,1,0,1.71-2.193l-2.144-1.672a9.313,9.313,0,0,0,1.766-5.514,6.519,6.519,0,0,0-2.6-5.077A5.56,5.56,0,0,0,640.252,356.3Z" transform="translate(-591.501 -311.595)" fill="#f7a848"/>
      </g>
      <g id="Group_556" data-name="Group 556" transform="translate(0 57.279)">
        <path id="Path_921" data-name="Path 921" d="M642.543,625.074H594.3a76,76,0,0,1-72.768-54.086l-2.517-8.363a76,76,0,0,1,8.607-62.635l70.912-111.716-42.187-39.121,178.4,16.57-39.726,22.552,64.878,92.366a76,76,0,0,1,9.712,68.291L761.13,573.69A76.01,76.01,0,0,1,741.7,604.056h0a76,76,0,0,1-52.466,21.018Z" transform="translate(-515.784 -349.153)" fill="#7f7066"/>
        <path id="Path_922" data-name="Path 922" d="M648.943,482.419q-5.942-4.66-17.824-7.413l-18.073-4.2q-10.462-2.41-13.687-4.215a8.827,8.827,0,0,1-5.038-8.222A10.6,10.6,0,0,1,599.372,449q5.07-3.369,13.59-3.4a28.436,28.436,0,0,1,12.82,2.542,14.252,14.252,0,0,1,6.949,7.1,10.187,10.187,0,0,0,9.371,6.044c7.431-.024,12.6-7.8,9.325-14.469a28.649,28.649,0,0,0-8.907-10.564,43.451,43.451,0,0,0-20.075-8l-.023-7.069a6.3,6.3,0,0,0-12.6.041l.021,6.646q-16.368,1.014-25.315,9.093a29.577,29.577,0,0,0-10.1,23q.05,15.152,10.476,22.239,6.156,4.238,22.6,7.816l11.15,2.407q9.789,2.062,14.3,4.771a8.8,8.8,0,0,1,4.53,7.875q.03,8.727-9.157,11.969a39.417,39.417,0,0,1-12.612,1.717q-12.974.043-18.341-6.294a14.6,14.6,0,0,1-2.381-4.177,10.11,10.11,0,0,0-9.5-6.326h-.271c-7.334.024-12.484,7.605-9.416,14.268a29.549,29.549,0,0,0,8.816,10.974c6.5,5.1,15.053,8.013,25.584,8.819l.041,12.323a6.3,6.3,0,1,0,12.6-.041l-.039-12.32c10.3-.878,18.516-3.9,24.589-9.125A29.533,29.533,0,0,0,658.214,503.4Q658.168,489.65,648.943,482.419Z" transform="translate(-485.55 -315.251)" fill="#f7a848"/>
        <g id="Group_555" data-name="Group 555" transform="translate(73.491 38.073)">
          <path id="Path_923" data-name="Path 923" d="M677.647,380.765H567.52a3.246,3.246,0,0,1,0-6.491H677.647a3.246,3.246,0,1,1,0,6.491Z" transform="translate(-564.275 -374.274)" fill="#f7a848"/>
        </g>
      </g>
    </g>
    <g id="Group_1331" data-name="Group 1331" transform="translate(1840.761 -13566.423)">
      <path id="Path_3219" data-name="Path 3219" d="M344.265,307.939l9.823-21.626-16.72,5.16-4.6,9.107-11.431,6.3s-13.918,11.228-33.275-.288c-7.938-4.732-16.8-13.281-26-28.016l-.011-.011-17.017-6.6-2.485-16.126h-9.954l-7.807,15.239-25.529,13.136S150.695,381.156,180.4,434.088l-1.9,12.189-4.959-4.179v7.228l16.008,6.1,8.369-15.622.769-26.659h63.98l11.048-9.138L265.458,343.1l-.876-6.509a68.707,68.707,0,0,0,16.391,8.154c16.275,5.5,40.144,5.806,49.653-33.122Z" transform="translate(-1504.375 16863.809)" fill="url(#linear-gradient-28)"/>
      <path id="Path_3220" data-name="Path 3220" d="M231.472,489.152v57.519h49.894l-37.322-15.995-.36-4.96-2.69-36.565Z" transform="translate(-1479.265 16960.338)" fill="url(#linear-gradient-29)"/>
      <path id="Path_3221" data-name="Path 3221" d="M231.472,515.016v20.954h49.894l-37.322-15.995-.36-4.96Z" transform="translate(-1479.265 16971.037)" fill="#3c3c3b"/>
      <path id="Path_3222" data-name="Path 3222" d="M210.511,489.152v57.519H160.616l37.322-15.995.36-4.96,2.69-36.565Z" transform="translate(-1508.58 16960.338)" fill="url(#linear-gradient-30)"/>
      <path id="Path_3223" data-name="Path 3223" d="M243.058,263.466l-2.286-3.318V237.464C189.481,216.541,210.5,267.38,210.5,267.38l30.272,13.859V263.466Z" transform="translate(-1489.706 16854.117)" fill="url(#linear-gradient-31)"/>
      <path id="Path_3224" data-name="Path 3224" d="M254.486,229.592s3.178,14.219-11.55,14.219S226.192,253,226.192,253l-4.585,2.425V262.6s-8.759-16.885-7.343-3.175c1.186,7.955,7.09,9.777,7.09,9.777l-4.3,1.745-5.245-2.4s-21.332-35,2.69-36.671C239.632,230.132,254.486,229.592,254.486,229.592Z" transform="translate(-1491.014 16852.951)" fill="#3c3c3b"/>
      <path id="Path_3225" data-name="Path 3225" d="M261.708,348.986a182.231,182.231,0,0,1-15.886-12.537c-14.867-13.114-33.683-34.044-25.662-50.7l22.252-13.833.011.011c9.2,14.735,18.06,23.284,26,28.016,0,0-5.656,23.321-7.086,38.151C260.844,343.114,260.844,347.148,261.708,348.986Z" transform="translate(-1484.739 16870.461)" fill="url(#linear-gradient-32)"/>
      <path id="Path_3226" data-name="Path 3226" d="M194.215,279.759l-5.523,107.217-5.713,11.807,10.665,9.9h63.987l11.046-9.141-9.141-67.415L257,274.109l-17.013-6.6s-11.3,29.581-20.25-.889Z" transform="translate(-1499.328 16868.27)" fill="url(#linear-gradient-33)"/>
      <path id="Path_3227" data-name="Path 3227" d="M198.451,275.913l-25.71,47.8s14.6,12.188,22.727,10.093Z" transform="translate(-1503.564 16872.115)" fill="url(#linear-gradient-34)"/>
      <path id="Path_3228" data-name="Path 3228" d="M272.178,545.36,258.086,367.11H194.1L181.866,545.36l26.661,10.284,18.495-177.768,18.5,177.768Z" transform="translate(-1499.789 16909.844)" fill="#3c3c3b"/>
      <path id="Path_3229" data-name="Path 3229" d="M210.511,515.016v20.954H160.616l37.322-15.995.36-4.96Z" transform="translate(-1508.58 16971.037)" fill="#3c3c3b"/>
      <path id="Path_3230" data-name="Path 3230" d="M135.179,89.885a1.575,1.575,0,0,1-.914-2.859l73.6-52.3a1.575,1.575,0,1,1,1.825,2.568l-73.6,52.3A1.569,1.569,0,0,1,135.179,89.885Z" transform="translate(-1297.388 17073.285)" fill="url(#linear-gradient-35)"/>
    </g>
  </g>
</svg>
