<svg xmlns="http://www.w3.org/2000/svg" width="543.693" height="391.263" viewBox="0 0 543.693 391.263">
  <g id="money" transform="translate(75.595 -581.006)">
    <g id="Group_115" data-name="Group 115" transform="translate(11.648 734.228)">
      <path id="Path_769" data-name="Path 769" d="M1200.825,258.317c-2.145-5.485,11.284-17.065,30.493-24.58s36.932-8.119,39.078-2.634-10.466,19.154-29.675,26.669S1202.972,263.8,1200.825,258.317Z" transform="translate(-1187.084 -210.239)" fill="#fecd1a"/>
      <path id="Path_770" data-name="Path 770" d="M1200.825,258.232a4.67,4.67,0,0,1,.651-4.023c3.208-5.737,14.644-14.613,29.842-20.557,15.073-5.9,29.378-7.132,35.7-5.208,1.742.533,2.907,1.376,3.376,2.575,2.146,5.485-10.466,19.154-29.675,26.669S1202.971,263.718,1200.825,258.232Z" transform="translate(-1187.083 -210.154)" fill="#fecd1a"/>
      <path id="Path_771" data-name="Path 771" d="M1199.865,256.49c2.961-7.381,14.758-18.105,31.061-24.482,16.167-6.324,31.979-6.458,39.234-3.19,2.213,6.988-13.676,20.87-29.978,27.248C1224.013,262.39,1203.1,262.763,1199.865,256.49Z" transform="translate(-1187.552 -210.724)" fill="#fecd1a"/>
      <path id="Path_772" data-name="Path 772" d="M1247.021,267.628c24.588-9.619,41.177-25.951,37.055-36.485s-28.262-13.514-52.85-3.895-40.3,28.187-36.181,38.722S1222.431,277.247,1247.021,267.628ZM1234.8,236.381c19.209-7.515,37.4-6.916,39.547-1.431s-10.466,19.154-29.675,26.669-37.75,6.031-39.9.545S1215.587,243.9,1234.8,236.381Z" transform="translate(-1191.033 -214.084)" fill="#fecd1a"/>
      <path id="Path_773" data-name="Path 773" d="M1196.349,268.821l-3.383-8.645c-2-5.123.885-11.614,7.219-18.028a51.681,51.681,0,0,1,5.043-4.528,96.47,96.47,0,0,1,24.794-13.929,102.681,102.681,0,0,1,16.383-4.943c9.17-1.994,17.5-2.321,23.857-1.08,5.974,1.181,10.188,3.721,11.737,7.682l3.381,8.645c-1.547-3.959-5.763-6.5-11.737-7.68-6.355-1.243-14.686-.916-23.855,1.08a102.626,102.626,0,0,0-16.383,4.942,96.487,96.487,0,0,0-24.794,13.929,51.487,51.487,0,0,0-5.045,4.53C1197.233,257.208,1194.345,263.7,1196.349,268.821Z" transform="translate(-1192.338 -216.936)" fill="#f89f31"/>
      <path id="Path_774" data-name="Path 774" d="M1228.773,227.394l-3.383-8.647c9.17-1.994,17.5-2.321,23.857-1.08l3.381,8.647C1246.273,225.071,1237.942,225.4,1228.773,227.394Z" transform="translate(-1171.323 -216.936)" fill="#fecd1a"/>
      <path id="Path_775" data-name="Path 775" d="M1200.516,242.755l-3.381-8.647a51.669,51.669,0,0,1,5.043-4.528l3.383,8.645A51.5,51.5,0,0,0,1200.516,242.755Z" transform="translate(-1189.288 -208.897)" fill="#fecd1a"/>
      <path id="Path_776" data-name="Path 776" d="M1208.335,250.05c-1.667-4.258,6.995-11.626,19.342-16.456s23.71-5.294,25.375-1.036-6.995,11.624-19.344,16.455S1210,254.308,1208.335,250.05Z" transform="translate(-1182.297 -208.855)" fill="#fecd1a"/>
      <path id="Path_777" data-name="Path 777" d="M1208.839,258.963c-2.328-5.952,9.778-16.249,27.04-23s33.143-7.4,35.471-1.45-9.778,16.251-27.04,23S1211.17,264.915,1208.839,258.963Z" transform="translate(-1191.006 -211.819)" fill="#f89f31"/>
    </g>
    <g id="Group_407" data-name="Group 407" transform="translate(374.427 895.723)">
      <path id="Path_769-2" data-name="Path 769" d="M1200.825,258.317c-2.145-5.485,11.284-17.065,30.493-24.58s36.932-8.119,39.078-2.634-10.466,19.154-29.675,26.669S1202.972,263.8,1200.825,258.317Z" transform="translate(-1187.084 -210.239)" fill="#fecd1a"/>
      <path id="Path_770-2" data-name="Path 770" d="M1200.825,258.232a4.67,4.67,0,0,1,.651-4.023c3.208-5.737,14.644-14.613,29.842-20.557,15.073-5.9,29.378-7.132,35.7-5.208,1.742.533,2.907,1.376,3.376,2.575,2.146,5.485-10.466,19.154-29.675,26.669S1202.971,263.718,1200.825,258.232Z" transform="translate(-1187.083 -210.154)" fill="#fecd1a"/>
      <path id="Path_771-2" data-name="Path 771" d="M1199.865,256.49c2.961-7.381,14.758-18.105,31.061-24.482,16.167-6.324,31.979-6.458,39.234-3.19,2.213,6.988-13.676,20.87-29.978,27.248C1224.013,262.39,1203.1,262.763,1199.865,256.49Z" transform="translate(-1187.552 -210.724)" fill="#fecd1a"/>
      <path id="Path_772-2" data-name="Path 772" d="M1247.021,267.628c24.588-9.619,41.177-25.951,37.055-36.485s-28.262-13.514-52.85-3.895-40.3,28.187-36.181,38.722S1222.431,277.247,1247.021,267.628ZM1234.8,236.381c19.209-7.515,37.4-6.916,39.547-1.431s-10.466,19.154-29.675,26.669-37.75,6.031-39.9.545S1215.587,243.9,1234.8,236.381Z" transform="translate(-1191.033 -214.084)" fill="#fecd1a"/>
      <path id="Path_773-2" data-name="Path 773" d="M1196.349,268.821l-3.383-8.645c-2-5.123.885-11.614,7.219-18.028a51.681,51.681,0,0,1,5.043-4.528,96.47,96.47,0,0,1,24.794-13.929,102.681,102.681,0,0,1,16.383-4.943c9.17-1.994,17.5-2.321,23.857-1.08,5.974,1.181,10.188,3.721,11.737,7.682l3.381,8.645c-1.547-3.959-5.763-6.5-11.737-7.68-6.355-1.243-14.686-.916-23.855,1.08a102.626,102.626,0,0,0-16.383,4.942,96.487,96.487,0,0,0-24.794,13.929,51.487,51.487,0,0,0-5.045,4.53C1197.233,257.208,1194.345,263.7,1196.349,268.821Z" transform="translate(-1192.338 -216.936)" fill="#f89f31"/>
      <path id="Path_774-2" data-name="Path 774" d="M1228.773,227.394l-3.383-8.647c9.17-1.994,17.5-2.321,23.857-1.08l3.381,8.647C1246.273,225.071,1237.942,225.4,1228.773,227.394Z" transform="translate(-1171.323 -216.936)" fill="#fecd1a"/>
      <path id="Path_775-2" data-name="Path 775" d="M1200.516,242.755l-3.381-8.647a51.669,51.669,0,0,1,5.043-4.528l3.383,8.645A51.5,51.5,0,0,0,1200.516,242.755Z" transform="translate(-1189.288 -208.897)" fill="#fecd1a"/>
      <path id="Path_776-2" data-name="Path 776" d="M1208.335,250.05c-1.667-4.258,6.995-11.626,19.342-16.456s23.71-5.294,25.375-1.036-6.995,11.624-19.344,16.455S1210,254.308,1208.335,250.05Z" transform="translate(-1182.297 -208.855)" fill="#fecd1a"/>
      <path id="Path_777-2" data-name="Path 777" d="M1208.839,258.963c-2.328-5.952,9.778-16.249,27.04-23s33.143-7.4,35.471-1.45-9.778,16.251-27.04,23S1211.17,264.915,1208.839,258.963Z" transform="translate(-1191.006 -211.819)" fill="#f89f31"/>
    </g>
    <g id="Group_107" data-name="Group 107" transform="translate(-54.276 581.006) rotate(11)">
      <path id="Path_714" data-name="Path 714" d="M0,57.621Q20.7,28.816,41.4,0A151.073,151.073,0,0,0,157.207,40.2q-1.664,35.442-3.344,70.887C96.581,115.554,42.172,96.645,0,57.621Z" transform="translate(0 0)" fill="#45ceae"/>
      <path id="Path_715" data-name="Path 715" d="M146.083,38.648q-2,30.517-4.011,61.035A196.933,196.933,0,0,1,0,50.315Q17.386,25.162,34.76,0A154.3,154.3,0,0,0,146.083,38.648Z" transform="translate(6.792 6.786)" fill="#33b194"/>
      <path id="Path_716" data-name="Path 716" d="M0,18.148,13.043,0c8.846,8.228,11.6,22.507,5.321,33.316A210.353,210.353,0,0,1,0,18.148Z" transform="translate(0 39.472)" fill="#45ceae"/>
      <path id="Path_717" data-name="Path 717" d="M0,18.152Q6.518,9.076,13.037,0A158.587,158.587,0,0,0,26.86,11.41C20.617,22.186,8.253,25.791,0,18.152Z" transform="translate(28.36 0)" fill="#45ceae"/>
      <path id="Path_718" data-name="Path 718" d="M0,22.842C1.8,10.472,12.825.973,24.868,0q-.527,11.166-1.056,22.33A210.185,210.185,0,0,1,0,22.842Z" transform="translate(130.052 88.759)" fill="#45ceae"/>
      <path id="Path_719" data-name="Path 719" d="M.266.391A158.085,158.085,0,0,0,18.188,0q-.524,11.166-1.049,22.33C5.926,23.209-1.527,12.718.266.391Z" transform="translate(139.02 40.202)" fill="#45ceae"/>
      <path id="Path_720" data-name="Path 720" d="M2.522,16.418C8.639,3.536,21.651-2.611,32.212,1.042,42.744,4.778,49.079,17.7,45.818,31.591c-3.236,13.84-17.282,22.957-30.7,18.245C1.7,45.14-3.586,29.247,2.522,16.418Z" transform="translate(59.033 40.921)" fill="#45ceae"/>
      <path id="Path_721" data-name="Path 721" d="M26.957,1.769q-.833,2.473-1.663,4.947A26.419,26.419,0,0,1,33.76,11.7q-1.724,2.864-3.487,5.709a23.956,23.956,0,0,0-8.429-5.126c-3.1-1.055-5.607-.73-6.374,1.333-.718,1.949.56,3.888,4.282,6.6,5.378,3.89,8.9,7.6,7.406,12.731-1.337,4.624-6.229,7.327-13.134,6.266q-.837,2.472-1.671,4.945-3.037-1.009-6.038-2.119.828-2.271,1.652-4.542A23.277,23.277,0,0,1,0,32.365q2.01-2.512,3.983-5.053a20.667,20.667,0,0,0,7.739,5c3.847,1.367,5.6.28,6.075-1.172.581-1.733-1.146-3.446-5.4-6.888C6.4,19.523,4.992,15.472,6.862,10.93S13.583,4.07,19.98,5.27Q20.933,2.636,21.887,0,24.408.927,26.957,1.769Z" transform="translate(65.902 44.372)" fill="#33b194"/>
      <path id="Path_722" data-name="Path 722" d="M1.049,0A176.883,176.883,0,0,0,21.56,1.6q-.312,2.606-.62,5.21A180.88,180.88,0,0,1,0,5.176Q.524,2.587,1.049,0Z" transform="translate(116.166 71.964)" fill="#45ceae"/>
      <path id="Path_723" data-name="Path 723" d="M2.748,0a176.97,176.97,0,0,0,17.09,11.455q-1.2,2.353-2.391,4.707A181.033,181.033,0,0,1,0,4.469Q1.375,2.234,2.748,0Z" transform="translate(33.222 38.227)" fill="#45ceae"/>
    </g>
    <g id="Group_114" data-name="Group 114" transform="translate(285.539 782.655)">
      <g id="Group_405" data-name="Group 405" transform="translate(9.338 4.948)">
        <path id="Path_820" data-name="Path 820" d="M1091.613,327.8c-4.953-4.668-8.909-16.642-7.245-30.2,1.649-13.442,8.372-24.442,14.269-28.307,6.856.946,11.709,16.874,10.047,30.428C1107.033,313.17,1098.309,327.786,1091.613,327.8Z" transform="translate(-1083.982 -269.3)" fill="#f89f31"/>
        <path id="Path_821" data-name="Path 821" d="M1090.743,314.072c-3.219-.375-5.066-9.434-4.127-20.232s4.312-19.25,7.531-18.875,5.066,9.434,4.127,20.232S1093.963,314.447,1090.743,314.072Z" transform="translate(-1076.105 -265.706)" fill="#f89f31"/>
      </g>
      <path id="Path_763" data-name="Path 763" d="M1111.059,300.2c1.872-18.591-3.067-34.306-11.032-35.11s-17.628,13.445-19.5,32.036,4.757,34.478,12.723,35.28S1109.188,318.79,1111.059,300.2Zm-23.626-2.378c1.463-14.525,7.706-25.79,11.853-25.373s8.69,12.769,7.227,27.294-8.374,25.723-12.522,25.306S1085.97,312.345,1087.433,297.821Z" transform="translate(-1075.29 -264.4)" fill="#fecd1a"/>
      <path id="Path_764" data-name="Path 764" d="M1095.163,332.661l-6.538-.659c-3.872-.389-7.029-4.3-9.028-10.36a36.59,36.59,0,0,1-1.225-4.638,68.282,68.282,0,0,1-.778-20.111,72.7,72.7,0,0,1,2.171-11.914c1.7-6.419,4.181-11.773,7.015-15.377,2.67-3.381,5.629-5.217,8.622-4.916l6.538.658c-2.993-.3-5.953,1.534-8.624,4.917-2.832,3.6-5.313,8.956-7.014,15.375a72.754,72.754,0,0,0-2.169,11.914,68.286,68.286,0,0,0,.777,20.111,36.8,36.8,0,0,0,1.225,4.638C1088.133,328.359,1091.29,332.27,1095.163,332.661Z" transform="translate(-1077.202 -264.655)" fill="#f89f31"/>
      <path id="Path_765" data-name="Path 765" d="M1085.305,283.714l-6.537-.658c1.7-6.419,4.181-11.773,7.015-15.377l6.536.659C1089.488,271.941,1087.006,277.3,1085.305,283.714Z" transform="translate(-1076.206 -262.732)" fill="#f89f31"/>
      <path id="Path_766" data-name="Path 766" d="M1085.679,301.952l-6.537-.658a36.57,36.57,0,0,1-1.225-4.638l6.536.658A36.741,36.741,0,0,0,1085.679,301.952Z" transform="translate(-1076.747 -244.308)" fill="#fecd1a"/>
    </g>
    <g id="Group_123" data-name="Group 123" transform="translate(151.226 673.732)">
      <path id="Path_786" data-name="Path 786" d="M1055.1,161.981c25.232,26.268,33.986,59.116,20.355,74.783a.772.772,0,0,1-.056.068c-.428.49-6.636,6.481-7.11,6.94-6.081,5.839-14.929,7.908-25,6.655a58.525,58.525,0,0,1-9.087-1.939c-13.576-4.027-28.415-13.241-41.351-26.708a112.854,112.854,0,0,1-15.738-20.556,83.347,83.347,0,0,1-9.428-22.446c-3.323-13.663-1.517-25.821,6.227-33.261.475-.456,6.714-6.416,7.219-6.825.025-.025.056-.037.071-.053C997.4,125.649,1029.864,135.707,1055.1,161.981Z" transform="translate(-966.095 -130.145)" fill="#f89f31"/>
      <path id="Path_787" data-name="Path 787" d="M1005.97,135.558l15.735,16.384-45.67,43.871a83.35,83.35,0,0,1-9.428-22.446Z" transform="translate(-965.019 -124.734)" fill="#fecd1a"/>
      <path id="Path_788" data-name="Path 788" d="M1020.245,160.246l5.33,5.55-28.439,27.316a58.522,58.522,0,0,1-9.087-1.939Z" transform="translate(-919.942 -72.831)" fill="#fecd1a"/>
      <path id="Path_789" data-name="Path 789" d="M1052.16,161.063c26.063,27.133,34.545,61.284,18.94,76.272-.493.475-1.008.928-1.542,1.35a.423.423,0,0,1-.068.059c-16.223,12.906-48.633,2.829-73.833-23.4s-33.959-59.02-20.411-74.711a.572.572,0,0,1,.059-.065q.67-.772,1.412-1.486C992.319,124.089,1026.1,133.933,1052.16,161.063Z" transform="translate(-960.197 -132.069)" fill="#fecd1a"/>
      <path id="Path_790" data-name="Path 790" d="M1042.4,159.445c22.182,23.091,29.4,52.151,16.12,64.908s-42.028,4.374-64.21-18.717-29.4-52.154-16.12-64.908S1020.222,136.35,1042.4,159.445Z" transform="translate(-954.647 -126.405)" fill="#fecd1a"/>
      <path id="Path_791" data-name="Path 791" d="M1027.041,156.887c16.073,16.734,21.3,37.79,11.681,47.032s-30.45,3.171-46.524-13.56-21.3-37.79-11.68-47.032S1010.971,140.156,1027.041,156.887Z" transform="translate(-945.908 -117.487)" fill="#f89f31"/>
    </g>
    <g id="Group_406" data-name="Group 406" transform="translate(265.535 896.055)">
      <path id="Path_786-2" data-name="Path 786" d="M1022.328,151.3c15.941,16.6,21.472,37.348,12.86,47.247a.535.535,0,0,1-.035.043c-.271.31-4.192,4.094-4.492,4.385-3.842,3.689-9.432,5-15.8,4.2a36.97,36.97,0,0,1-5.741-1.225c-8.577-2.544-17.952-8.365-26.125-16.874a71.309,71.309,0,0,1-9.943-12.987,52.662,52.662,0,0,1-5.957-14.181c-2.1-8.632-.958-16.313,3.934-21.013.3-.288,4.242-4.053,4.561-4.312.016-.016.035-.024.045-.033C985.876,128.35,1006.383,134.7,1022.328,151.3Z" transform="translate(-966.095 -131.19)" fill="#f89f31"/>
      <path id="Path_787-2" data-name="Path 787" d="M991.476,135.558l9.941,10.351-28.854,27.717a52.663,52.663,0,0,1-5.956-14.181Z" transform="translate(-965.604 -128.72)" fill="#fecd1a"/>
      <path id="Path_788-2" data-name="Path 788" d="M1008.389,160.246l3.367,3.507-17.968,17.258a36.968,36.968,0,0,1-5.741-1.225Z" transform="translate(-945.02 -105.019)" fill="#fecd1a"/>
      <path id="Path_789-2" data-name="Path 789" d="M1021.5,150.387c16.466,17.142,21.825,38.718,11.966,48.187-.312.3-.637.586-.974.853a.263.263,0,0,1-.043.037c-10.249,8.154-30.725,1.788-46.647-14.786s-21.454-37.288-12.9-47.2a.384.384,0,0,1,.037-.041q.423-.488.892-.939C983.7,127.028,1005.037,133.247,1021.5,150.387Z" transform="translate(-963.402 -132.069)" fill="#fecd1a"/>
      <path id="Path_790-2" data-name="Path 790" d="M1016.311,150.357c14.014,14.589,18.573,32.948,10.184,41.008s-26.552,2.764-40.567-11.825-18.573-32.95-10.184-41.008S1002.3,135.766,1016.311,150.357Z" transform="translate(-960.868 -129.483)" fill="#fecd1a"/>
      <path id="Path_791-2" data-name="Path 791" d="M1008.135,150.3c10.155,10.572,13.459,23.875,7.38,29.714s-19.238,2-29.393-8.567-13.458-23.875-7.38-29.714S997.983,139.732,1008.135,150.3Z" transform="translate(-956.877 -125.41)" fill="#f89f31"/>
    </g>
    <g id="Group_104" data-name="Group 104" transform="translate(148.963 813.588)">
      <path id="Path_684" data-name="Path 684" d="M953.711,362.99q10.335-13.709,20.664-27.425a73.116,73.116,0,0,0,55.593,20.724q-1.2,17.129-2.4,34.262A97.158,97.158,0,0,1,953.711,362.99Z" transform="translate(-953.711 -335.565)" fill="#45ceae"/>
      <path id="Path_685" data-name="Path 685" d="M1026.534,357.5q-1.3,14.744-2.611,29.489a95.312,95.312,0,0,1-68.2-25.448q8.689-11.979,17.371-23.963A74.675,74.675,0,0,0,1026.534,357.5Z" transform="translate(-952.431 -334.288)" fill="#33b194"/>
      <path id="Path_686" data-name="Path 686" d="M953.711,355.687q3.256-4.319,6.51-8.637a13.361,13.361,0,0,1,2.208,16.178A101.763,101.763,0,0,1,953.711,355.687Z" transform="translate(-953.711 -328.263)" fill="#45ceae"/>
      <path id="Path_687" data-name="Path 687" d="M962.365,344.205l6.507-8.64a76.626,76.626,0,0,0,6.563,5.673C972.3,346.383,966.275,347.991,962.365,344.205Z" transform="translate(-948.209 -335.565)" fill="#45ceae"/>
      <path id="Path_688" data-name="Path 688" d="M991.816,373.359a13.394,13.394,0,0,1,12.283-10.778q-.378,5.4-.756,10.793A101.859,101.859,0,0,1,991.816,373.359Z" transform="translate(-929.483 -318.388)" fill="#45ceae"/>
      <path id="Path_689" data-name="Path 689" d="M995.091,348.229a76.375,76.375,0,0,0,8.677.008q-.376,5.4-.753,10.793C997.579,359.331,994.088,354.174,995.091,348.229Z" transform="translate(-927.51 -327.513)" fill="#45ceae"/>
      <path id="Path_690" data-name="Path 690" d="M972.443,355.649c3.1-6.165,9.465-9,14.534-7.113,5.056,1.924,7.978,8.246,6.249,14.93-1.718,6.661-8.616,10.917-15.054,8.492S969.348,361.789,972.443,355.649Z" transform="translate(-942.656 -327.684)" fill="#45ceae"/>
      <path id="Path_691" data-name="Path 691" d="M986.455,349.912q-.432,1.188-.86,2.375a12.822,12.822,0,0,1,4.042,2.5q-.863,1.367-1.75,2.724a11.587,11.587,0,0,0-4.021-2.573c-1.487-.543-2.7-.414-3.1.576-.37.934.227,1.888,2,3.241,2.56,1.942,4.222,3.777,3.445,6.241-.7,2.223-3.095,3.476-6.424,2.889q-.432,1.185-.862,2.374-1.46-.522-2.9-1.091l.849-2.181a11.261,11.261,0,0,1-3.8-2.57q1-1.192,1.983-2.4a10.013,10.013,0,0,0,3.689,2.5c1.847.7,2.7.2,2.953-.5.3-.833-.517-1.68-2.539-3.393-2.846-2.356-3.484-4.33-2.531-6.507s3.329-3.245,6.409-2.594l.982-2.529Q985.231,349.477,986.455,349.912Z" transform="translate(-941.398 -327.022)" fill="#33b194"/>
      <path id="Path_692" data-name="Path 692" d="M988.505,357.36a85.26,85.26,0,0,0,9.9,1q-.176,1.259-.357,2.514a87.678,87.678,0,0,1-10.113-1.022Z" transform="translate(-931.947 -321.707)" fill="#45ceae"/>
      <path id="Path_693" data-name="Path 693" d="M965.017,346.836a85.6,85.6,0,0,0,8.143,5.729q-.606,1.126-1.209,2.252a87.839,87.839,0,0,1-8.313-5.85Q964.328,347.9,965.017,346.836Z" transform="translate(-947.399 -328.399)" fill="#45ceae"/>
    </g>
    <g id="Group_106" data-name="Group 106" transform="translate(347.119 775.415)">
      <path id="Path_704" data-name="Path 704" d="M1083.106,435.516q-16.41-19.823-32.828-39.637A109.6,109.6,0,0,0,1099.771,322q24.564,7.681,49.129,15.373A145.619,145.619,0,0,1,1083.106,435.516Z" transform="translate(-1050.278 -321.997)" fill="#45ceae"/>
      <path id="Path_705" data-name="Path 705" d="M1101.5,325.042q21.047,7.01,42.094,14.03a142.853,142.853,0,0,1-60.75,90.626q-14.456-16.822-28.921-33.638A111.931,111.931,0,0,0,1101.5,325.042Z" transform="translate(-1049.132 -321.04)" fill="#33b194"/>
      <path id="Path_706" data-name="Path 706" d="M1077.728,412.085q-5.169-6.243-10.339-12.487c7.4-4.7,17.927-4,24.358,2.388A152.758,152.758,0,0,1,1077.728,412.085Z" transform="translate(-1044.9 -298.565)" fill="#45ceae"/>
      <path id="Path_707" data-name="Path 707" d="M1060.621,392.515q-5.171-6.243-10.343-12.484a114.883,114.883,0,0,0,10.547-7.6C1067.24,378.788,1067.5,388.126,1060.621,392.515Z" transform="translate(-1050.278 -306.148)" fill="#45ceae"/>
      <path id="Path_708" data-name="Path 708" d="M1125.071,351.655c-8.35-3.535-12.99-13.018-11.459-21.647l15.475,4.844A152.366,152.366,0,0,1,1125.071,351.655Z" transform="translate(-1030.465 -319.479)" fill="#45ceae"/>
      <path id="Path_709" data-name="Path 709" d="M1085.638,334.646a114.872,114.872,0,0,0,3.02-12.649l15.476,4.84C1102.691,334.866,1093.959,338.169,1085.638,334.646Z" transform="translate(-1039.165 -321.997)" fill="#45ceae"/>
      <path id="Path_710" data-name="Path 710" d="M1085.558,382.7c-7.917-6.659-9.839-16.92-5.333-23.66,4.556-6.705,14.791-8.775,23.937-3.935,9.117,4.813,12.934,16.347,7.163,24.894S1093.439,389.341,1085.558,382.7Z" transform="translate(-1041.617 -312.425)" fill="#45ceae"/>
      <path id="Path_711" data-name="Path 711" d="M1082.628,357.891l3.166,2.077a19.151,19.151,0,0,1,5.052-5.026q1.694,1.735,3.366,3.5a17.35,17.35,0,0,0-5.145,4.972c-1.309,1.979-1.543,3.8-.237,4.718,1.235.862,2.831.322,5.419-1.791,3.718-3.06,6.971-4.844,10.3-2.858,3,1.787,4,5.717,1.983,10.368l3.164,2.081q-1.266,1.946-2.6,3.847-1.443-1-2.885-1.994a16.829,16.829,0,0,1-5.064,4.649q-1.394-1.871-2.814-3.723a14.99,14.99,0,0,0,4.931-4.511c1.667-2.449,1.225-3.874.294-4.479-1.109-.726-2.629.171-5.828,2.526-4.42,3.334-7.522,3.58-10.364,1.434s-3.58-5.977-1.563-10.246l-3.346-2.307Q1081.569,359.526,1082.628,357.891Z" transform="translate(-1040.793 -311.643)" fill="#33b194"/>
      <path id="Path_712" data-name="Path 712" d="M1099.3,351.162a128.408,128.408,0,0,0,4.894-14.1l3.542,1.393a131.476,131.476,0,0,1-5,14.393Z" transform="translate(-1034.87 -317.262)" fill="#45ceae"/>
      <path id="Path_713" data-name="Path 713" d="M1069.931,388.818a128.666,128.666,0,0,0,11.176-9.887l2.864,2.543a131.147,131.147,0,0,1-11.412,10.094Q1071.245,390.194,1069.931,388.818Z" transform="translate(-1044.102 -304.104)" fill="#45ceae"/>
    </g>
  </g>
</svg>
