<svg xmlns="http://www.w3.org/2000/svg" xmlns:xlink="http://www.w3.org/1999/xlink" width="899.975" height="532.576" viewBox="0 0 899.975 532.576">
  <defs>
    <linearGradient id="linear-gradient" x1="0.563" y1="-0.2" x2="0.425" y2="1.375" gradientUnits="objectBoundingBox">
      <stop offset="0" stop-color="#33b194"/>
      <stop offset="1" stop-color="#003e46"/>
    </linearGradient>
    <linearGradient id="linear-gradient-2" x1="0.446" y1="0.075" x2="0.568" y2="1.037" xlink:href="#linear-gradient"/>
    <clipPath id="clip-path">
      <path id="Path_1163" data-name="Path 1163" d="M581.6,588.124H729.9s132.631-95.616,13.276-101.658c-69.373-3.513,49.954-95.8-25.466-135.233-60-31.374-58.836,159.82-120.3,45.662C538.952,288.35,362.937,433.215,581.6,588.124Z" transform="translate(-474.993 -347.703)" fill="url(#linear-gradient)"/>
    </clipPath>
    <linearGradient id="linear-gradient-4" x1="0.447" y1="-0.187" x2="0.488" y2="0.312" xlink:href="#linear-gradient"/>
    <linearGradient id="linear-gradient-5" x1="0.5" y1="-0.096" x2="0.5" y2="1.043" xlink:href="#linear-gradient"/>
    <linearGradient id="linear-gradient-6" x1="0.435" y1="1.223" x2="0.554" y2="-0.104" gradientUnits="objectBoundingBox">
      <stop offset="0" stop-color="#a3897a"/>
      <stop offset="1" stop-color="#b0485d"/>
    </linearGradient>
    <clipPath id="clip-path-2">
      <rect id="Rectangle_735" data-name="Rectangle 735" width="91.215" height="204.364" rx="23.491" fill="url(#linear-gradient-2)"/>
    </clipPath>
    <linearGradient id="linear-gradient-8" x1="0.711" y1="0.056" x2="0.453" y2="0.935" xlink:href="#linear-gradient"/>
    <linearGradient id="linear-gradient-9" x1="0.5" y1="0.245" x2="0.5" y2="0.742" gradientUnits="objectBoundingBox">
      <stop offset="0" stop-color="#fff"/>
      <stop offset="1" stop-color="#dcccca"/>
    </linearGradient>
    <linearGradient id="linear-gradient-10" x1="0.516" y1="0.693" x2="0.597" y2="0.33" gradientUnits="objectBoundingBox">
      <stop offset="0" stop-color="#fad6c7"/>
      <stop offset="1" stop-color="#e4857f"/>
    </linearGradient>
    <linearGradient id="linear-gradient-11" x1="0.699" y1="0.417" x2="0.327" y2="0.879" xlink:href="#linear-gradient-10"/>
    <linearGradient id="linear-gradient-12" x1="-0.273" y1="-0.231" x2="1.178" y2="1.456" xlink:href="#linear-gradient-10"/>
    <linearGradient id="linear-gradient-13" x1="0.296" y1="0.078" x2="0.681" y2="1.011" xlink:href="#linear-gradient"/>
    <linearGradient id="linear-gradient-14" x1="89.232" y1="-48.266" x2="89.216" y2="-48.972" xlink:href="#linear-gradient-10"/>
    <clipPath id="clip-path-3">
      <rect id="Rectangle_747" data-name="Rectangle 747" width="165.91" height="15.824" transform="translate(165.91 15.824) rotate(180)" fill="#ffce55"/>
    </clipPath>
    <clipPath id="clip-path-5">
      <rect id="Rectangle_771" data-name="Rectangle 771" width="165.91" height="15.823" transform="translate(165.91 15.823) rotate(180)" fill="#ffce55"/>
    </clipPath>
  </defs>
  <g id="page-header-contact" transform="translate(-96.322 -133.109)">
    <path id="Path_1159" data-name="Path 1159" d="M96.322,634.234H863.73S835.3,18.29,615.35,288.64C286.461,692.9,147.711,383.717,96.322,634.234Z" transform="translate(0 31.397)" fill="#33b194" opacity="0.3"/>
    <path id="Path_1160" data-name="Path 1160" d="M881.767,649.792H198.3S182.459,444.5,371.95,431.733s206.669-281.6,395.17-252.582C945.146,206.559,963.989,412.979,881.767,649.792Z" transform="translate(36.713 15.839)" fill="#33b194" opacity="0.3"/>
    <g id="Group_687" data-name="Group 687" transform="translate(611.761 425.209)">
      <path id="Path_1161" data-name="Path 1161" d="M581.6,588.124H729.9s132.631-95.616,13.276-101.658c-69.373-3.513,49.954-95.8-25.466-135.233-60-31.374-58.836,159.82-120.3,45.662C538.952,288.35,362.937,433.215,581.6,588.124Z" transform="translate(-474.993 -347.703)" fill="url(#linear-gradient)"/>
      <g id="Group_686" data-name="Group 686" clip-path="url(#clip-path)">
        <path id="Path_1162" data-name="Path 1162" d="M762.713,510.248a3.114,3.114,0,0,0-5.426-3.06c-.128.226-6.464,11.1-22.366,25.417-2.857-2.334-6.862-6.512-7.069-10.783-.138-2.8,1.383-5.431,4.646-8.035a3.115,3.115,0,1,0-3.887-4.869c-4.869,3.889-7.218,8.332-6.982,13.206.31,6.37,5.156,11.653,8.551,14.6a229.5,229.5,0,0,1-47.354,30.258c-1.628-2.6-4-7.559-2.948-13.184,1.243-6.617,6.826-12.587,16.593-17.74a3.115,3.115,0,1,0-2.907-5.51c-11.569,6.106-18.239,13.57-19.822,22.182-1.326,7.2,1.289,13.345,3.419,16.932a304.17,304.17,0,0,1-30,11.842,168.727,168.727,0,0,1-4.274-56.324,38.049,38.049,0,0,0,12.818,2.358,29.523,29.523,0,0,0,9.271-1.45c8.413-2.774,15.044-9.366,19.707-19.591a3.115,3.115,0,1,0-5.668-2.586c-3.9,8.562-9.267,14.027-15.941,16.246-7.91,2.63-15.882.1-19.476-1.391a194.617,194.617,0,0,1,17.939-59.121,21.4,21.4,0,0,0,8.306,1.662,22.738,22.738,0,0,0,2.969-.2c8.56-1.132,16.868-6.937,24.69-17.249a3.114,3.114,0,1,0-4.961-3.765c-12.975,17.1-23.635,15.768-28.227,13.982,15.777-30.561,34.26-49.016,34.641-49.389a3.114,3.114,0,0,0-4.354-4.454,183.428,183.428,0,0,0-17.728,21.531c-2.495-1.963-6.308-5.675-7-10.476-.585-4.089,1.247-8.405,5.45-12.829a3.115,3.115,0,0,0-4.516-4.29c-5.6,5.89-7.982,11.961-7.094,18.046,1.033,7.07,6.294,12.134,9.581,14.665a237.1,237.1,0,0,0-15.409,26.15,3.179,3.179,0,0,0-.34.359,3.1,3.1,0,0,0-.625,1.574,209.9,209.9,0,0,0-15.347,41.294,16.23,16.23,0,0,1-8.684-5.522c-2.844-3.747-3.66-9.029-2.424-15.7a3.115,3.115,0,1,0-6.125-1.134c-1.575,8.506-.35,15.459,3.64,20.668a22.44,22.44,0,0,0,12.173,7.757c-1.209,5.532-2.193,11.232-2.906,17.09a3.085,3.085,0,0,0-.2,1.616,174.658,174.658,0,0,0,2.33,54.242,663.165,663.165,0,0,1-59.571-72.931c10.228-3.761,16.518-9.419,18.7-16.864,4.176-14.231-8.608-29.117-9.155-29.743a3.114,3.114,0,0,0-4.7,4.089c.11.129,11.1,12.971,7.869,23.917-1.7,5.762-7.239,10.2-16.387,13.258-15.954-23.573-30.524-49.555-38.573-74.69,7.161-1.38,12.434-4.759,15.674-10.108,8.366-13.816-.451-35.485-.83-36.4a3.114,3.114,0,0,0-5.755,2.382c.08.2,7.992,19.689,1.25,30.8-2.4,3.961-6.385,6.376-12.134,7.342a126.126,126.126,0,0,1-4.492-24.63,3.114,3.114,0,1,0-6.212.452c1.277,17.513,6.949,37.021,16.9,58.36-13.81,4.636-25.436,4.684-34.587.12-12.019-5.995-15.7-18.177-15.734-18.3a3.114,3.114,0,0,0-5.986,1.721,38.637,38.637,0,0,0,18.844,22.1,40.121,40.121,0,0,0,18.259,4.1,67.779,67.779,0,0,0,21.939-4.1q15.152,30.659,41.678,66.058,3.62,4.821,7.213,9.406c-31.635,6.229-55.788-21.136-56.04-21.428a3.114,3.114,0,0,0-4.716,4.069c1,1.167,21.584,24.6,51,24.6a56.246,56.246,0,0,0,14.026-1.833,651.212,651.212,0,0,0,44.908,50.728c.042.042.1.055.143.094a2.732,2.732,0,0,0,.2.193,3.03,3.03,0,0,0,.486.26c.094.046.176.106.272.143.038.014.071.035.107.049a3.123,3.123,0,0,0,.954.158l.022,0h.005a3.077,3.077,0,0,0,.8-.107c.035-.008.065-.026.1-.037.019-.005.038,0,.058-.01,26.35-8.569,47.256-18.846,63.7-29.092a72.749,72.749,0,0,0,15.814,1.8c9.641,0,21.232-2.179,28.988-10.9a3.115,3.115,0,0,0-4.657-4.138c-8.449,9.508-23.434,9.379-32.45,8.247C749.938,532.246,761.972,511.56,762.713,510.248Z" transform="translate(-471.184 -338.247)" fill="url(#linear-gradient-4)"/>
      </g>
    </g>
    <path id="Path_1164" data-name="Path 1164" d="M647.729,556.83H626.338a33.693,33.693,0,0,1-32.263-23.979l-1.116-3.709a33.694,33.694,0,0,1,3.817-27.769l31.439-49.53-18.7-17.345,79.1,7.346-17.612,10,28.764,40.951a33.7,33.7,0,0,1,4.305,30.278l-3.757,10.978a33.68,33.68,0,0,1-8.616,13.462h0a33.686,33.686,0,0,1-23.261,9.319Z" transform="translate(178.858 108.855)" fill="#7f7066"/>
    <g id="Group_688" data-name="Group 688" transform="translate(804.457 559.092)">
      <path id="Path_1165" data-name="Path 1165" d="M662.557,448.57H617.875a1.256,1.256,0,1,1,0-2.509h44.682a1.256,1.256,0,1,1,0,2.509Z" transform="translate(-616.559 -446.061)" fill="#f7a848"/>
    </g>
    <path id="Path_1166" data-name="Path 1166" d="M654.676,491.931a21.757,21.757,0,0,0-8.45-3.515l-8.569-1.991a29.482,29.482,0,0,1-6.489-2,4.183,4.183,0,0,1-2.389-3.9,5.029,5.029,0,0,1,2.394-4.443,11.574,11.574,0,0,1,6.444-1.61,13.478,13.478,0,0,1,6.078,1.2,6.762,6.762,0,0,1,3.3,3.366,4.861,4.861,0,1,0,8.864-3.994,13.584,13.584,0,0,0-4.224-5.009,20.589,20.589,0,0,0-9.517-3.791L642.1,462.9a2.986,2.986,0,0,0-5.973.019l.009,3.151q-7.759.48-12,4.311a14.026,14.026,0,0,0-4.79,10.906q.025,7.183,4.967,10.544,2.92,2.009,10.712,3.705l5.287,1.141a23.175,23.175,0,0,1,6.781,2.262,4.17,4.17,0,0,1,2.148,3.734q.012,4.137-4.342,5.675a18.723,18.723,0,0,1-5.98.814q-6.152.02-8.7-2.984a6.888,6.888,0,0,1-1.128-1.98,4.794,4.794,0,0,0-4.507-3h-.128A4.841,4.841,0,0,0,620,507.963a14.013,14.013,0,0,0,4.18,5.2c3.084,2.415,7.137,3.8,12.13,4.181l.019,5.842a2.986,2.986,0,0,0,5.973-.019l-.019-5.841c4.883-.417,8.778-1.85,11.657-4.327a14,14,0,0,0,5.133-11.122Q659.051,495.358,654.676,491.931Z" transform="translate(188.905 118.038)" fill="#f7a848"/>
    <path id="Path_1167" data-name="Path 1167" d="M428.461,373.8H235.278c-13.531,0-38.9-22.033-31.9-42.618,3.618-10.646,40.264-19.928,51.793-7.783,29.514,31.087,66.317-123.457,94.946-6.553C363.792,372.706,425.21,272.455,428.461,373.8Z" transform="translate(38.232 50.329)" fill="#fff" opacity="0.8"/>
    <path id="Path_1168" data-name="Path 1168" d="M663.955,220.005s-9.8,158.372-87.786,260.74a253.29,253.29,0,0,1-24.722,28.069,215.378,215.378,0,0,1-20.536,17.714,191.434,191.434,0,0,1-46.823,26.22q-7.371-2.836-14.351-6.252c-35.78-17.362-63.9-45.067-86-77.175-70.4-102.3-79.5-249.317-79.5-249.317,69.735-1.729,113.088-33.187,139.713-67.359a50.583,50.583,0,0,1,40.14-19.537h.041a50.651,50.651,0,0,1,40.113,19.537A172.783,172.783,0,0,0,566.15,191.49a1.345,1.345,0,0,0,.176.108c3.6,2.349,7.372,4.6,11.287,6.724a178.058,178.058,0,0,0,58.016,19.2A220.512,220.512,0,0,0,663.955,220.005Z" transform="translate(75.094 0)" fill="url(#linear-gradient-5)"/>
    <path id="Path_1169" data-name="Path 1169" d="M442.713,174.607c-22.278,28.594-58.569,54.921-116.927,56.368,0,0,13.978,225.783,150.523,278.466,136.545-52.683,150.522-278.466,150.522-278.466-58.358-1.447-94.648-27.773-116.925-56.368A42.682,42.682,0,0,0,442.713,174.607Z" transform="translate(82.877 9.081)" fill="#fff"/>
    <path id="Path_1170" data-name="Path 1170" d="M616.232,220.005s-9.8,158.372-87.786,260.74a253.293,253.293,0,0,1-24.722,28.069,215.382,215.382,0,0,1-20.536,17.714,191.434,191.434,0,0,1-46.823,26.22V133.109h.041a50.651,50.651,0,0,1,40.113,19.537,172.783,172.783,0,0,0,41.909,38.844,1.345,1.345,0,0,0,.176.108c3.6,2.349,7.372,4.6,11.287,6.724a178.058,178.058,0,0,0,58.016,19.2A220.512,220.512,0,0,0,616.232,220.005Z" transform="translate(122.816 0)" fill="#f6f6f6" opacity="0.2"/>
    <g id="Group_689" data-name="Group 689" transform="translate(306.174 483.197)">
      <rect id="Rectangle_733" data-name="Rectangle 733" width="10.801" height="150.099" transform="translate(0)" fill="url(#linear-gradient-6)"/>
    </g>
    <g id="Group_692" data-name="Group 692" transform="translate(265.967 363.009)">
      <rect id="Rectangle_734" data-name="Rectangle 734" width="91.215" height="204.364" rx="23.491" transform="translate(0)" fill="url(#linear-gradient-2)"/>
      <g id="Group_691" data-name="Group 691" transform="translate(0)" clip-path="url(#clip-path-2)">
        <g id="Group_690" data-name="Group 690" transform="translate(16.189 -48.552)">
          <path id="Path_1171" data-name="Path 1171" d="M285.619,530.893c-2.11-.787-51.715-19.506-52.755-39.591-.4-7.786,6.276-14.619,19.857-20.311,20.314-8.514,14.256-16.255,1.8-29.2-12.287-12.771-27.577-28.664,2.79-46.366,23.272-13.566,13.009-22.189.014-33.105-12.432-10.444-27.9-23.445-.069-40.074C269.72,314.793,275.3,307,273.835,299.069,271,283.7,242.9,272.31,242.622,272.2l8.016-5.857c1.352.536,33.135,13.363,36.622,31.96,1.888,10.074-4.835,19.771-19.985,28.822-20.924,12.5-11.068,20.78,1.409,31.264,12.877,10.817,28.9,24.282-1.465,41.981-23.925,13.947-12.652,25.664-.717,38.069,11.57,12.025,24.682,25.654-5.5,38.3-10.137,4.25-14.929,8.947-14.648,14.362.433,8.373,12.954,17.045,23.381,22.845A196.238,196.238,0,0,0,293.3,524.9Z" transform="translate(-232.846 -266.338)" fill="url(#linear-gradient-8)"/>
        </g>
      </g>
    </g>
    <path id="Path_1172" data-name="Path 1172" d="M266.561,541.49h0a30.765,30.765,0,0,1-28.8-19.943l-16.808-44.73h91.215l-16.809,44.73A30.764,30.764,0,0,1,266.561,541.49Z" transform="translate(45.014 124.14)" fill="url(#linear-gradient-9)"/>
    <path id="Path_1173" data-name="Path 1173" d="M329.847,567.9H301.074a45.324,45.324,0,0,1-43.4-32.257l-1.5-4.987a45.32,45.32,0,0,1,5.133-37.355L303.6,426.673l-25.161-23.332,106.4,9.882-23.693,13.45,38.693,55.086a45.319,45.319,0,0,1,5.792,40.728l-5.054,14.766a45.328,45.328,0,0,1-11.589,18.11h0A45.325,45.325,0,0,1,357.692,567.9Z" transform="translate(57.04 97.602)" fill="#a38874"/>
    <g id="Group_693" data-name="Group 693" transform="translate(355.119 523.649)">
      <path id="Path_1174" data-name="Path 1174" d="M354.063,423.893H288.385a1.936,1.936,0,0,1,0-3.871h65.678a1.936,1.936,0,1,1,0,3.871Z" transform="translate(-286.449 -420.022)" fill="#f7a848"/>
    </g>
    <path id="Path_1175" data-name="Path 1175" d="M645.643,600.8l-4.007-3.75L631.112,558.77l-.057-.286-17.928-100.1-.849-4.576A12.572,12.572,0,0,0,594.86,444.6l-15.014,5.157-49.173,16.877,2.445,11.773,8.383,40.315,4.5,21.67-30.4,8.748,17.551-12.421-8.8-25.315-12.1-34.82L506.7,460.6l60.811-30.582,16.877-8.492,1.633-69.3.445-18.915.244-1.688,1.391-9.776,7.2-1.228.1-.014,1.715-15.986h12.84l-.216,13.5,4.6-1.512,11.463-3.754,4.092-1.337L640.022,456.4l2.483,102.087h0l1.8,36.252Z" transform="translate(148.218 61.944)" fill="url(#linear-gradient-10)"/>
    <path id="Path_1176" data-name="Path 1176" d="M586.85,336.3s17.842-42.618,50.96,0c0,0,19.985-43.782,0-45.119l2.284,5.515-7.994.57-4.568-6.086,11.42-9.331s46.872,49.457,19.985,75.941c0,0-65.663,23.411-67.947,7.423S586.85,336.3,586.85,336.3Z" transform="translate(177.168 53.723)" fill="url(#linear-gradient-11)"/>
    <path id="Path_1177" data-name="Path 1177" d="M589.682,332.111s-23.991-39.485-50.391,7.591c0,0-26.283-40.317-6.72-44.617l-1.437,5.794,7.99-.626,3.61-6.7-12.682-7.526S491.071,341.917,521.6,364.1c0,0,68.418,13.367,68.294-2.782S589.682,332.111,589.682,332.111Z" transform="translate(149.384 55.232)" fill="url(#linear-gradient-12)"/>
    <path id="Path_1178" data-name="Path 1178" d="M623.887,454.567l-26.9,1.985-.849-4.576a12.572,12.572,0,0,0-17.418-9.208l-15.014,5.157-12.34-19.74,16.877-8.492,1.633-69.3.445-18.915.244-1.688,1.391-9.776,7.2-1.228c2,8.33,2.634,25.6,5.091,29.825,12.813,22.1,27.557-15.217,25.409-37.589l4.092-1.337Z" transform="translate(164.353 63.774)" fill="url(#linear-gradient-13)"/>
    <path id="Path_1179" data-name="Path 1179" d="M633.188,536.379H607.024l-8.967-45.257h11.449l2.268,32.4Z" transform="translate(181.216 129.306)" fill="#f7a848"/>
    <g id="Group_694" data-name="Group 694" transform="translate(713.699 303.54)">
      <path id="Path_1180" data-name="Path 1180" d="M598.691,301.4l-3.672-1.71-11.566-19.664c-55.13,8.016-10.987,41.368-10.987,41.368l33.308-3.421-9.063-15.409Z" transform="translate(-547.768 -250.478)" fill="url(#linear-gradient-14)"/>
      <path id="Path_1181" data-name="Path 1181" d="M578.518,303.617s52.167-8.034,35-38.049-63.634,42.873-63.634,42.873l24.7,20.791,7.6-.78s-19.555-20.009-12.255-19.583,9.911,5.294,9.911,5.294Z" transform="translate(-549.883 -258.318)" fill="#3c3c3b"/>
    </g>
    <path id="Path_1182" data-name="Path 1182" d="M568.506,269.766H802.63c17.635,0,29.026-17.359,19.9-30.956-4.716-7.03-13.164-10.356-28.189-2.334-38.464,20.533-86.425-81.545-123.736-4.329C652.783,269.042,646.02,242.265,568.506,269.766Z" transform="translate(170.542 25.18)" fill="#fff" opacity="0.8"/>
    <g id="Group_696" data-name="Group 696" transform="translate(584.843 649.807)">
      <rect id="Rectangle_736" data-name="Rectangle 736" width="165.91" height="15.824" transform="translate(165.91 15.824) rotate(180)" fill="#ffce55"/>
      <g id="Group_695" data-name="Group 695" transform="translate(0 0)" clip-path="url(#clip-path-3)">
        <rect id="Rectangle_737" data-name="Rectangle 737" width="25.356" height="78.064" transform="translate(25.356 55.382) rotate(180)" fill="#f7a848"/>
        <rect id="Rectangle_738" data-name="Rectangle 738" width="16.166" height="66.103" transform="translate(44.952 39.559) rotate(180)" fill="#f7a848"/>
        <rect id="Rectangle_739" data-name="Rectangle 739" width="10.288" height="49.762" transform="translate(59.158 23.735) rotate(180)" fill="#f7a848"/>
        <rect id="Rectangle_740" data-name="Rectangle 740" width="4.899" height="23.735" transform="translate(66.507 15.824) rotate(180)" fill="#f7a848"/>
        <rect id="Rectangle_741" data-name="Rectangle 741" width="7.838" height="30.594" transform="translate(78.264 23.735) rotate(180)" fill="#f7a848"/>
        <rect id="Rectangle_742" data-name="Rectangle 742" width="2.658" height="23.247" transform="translate(85.613 19.692) rotate(180)" fill="#f7a848"/>
        <rect id="Rectangle_743" data-name="Rectangle 743" width="0.98" height="22.214" transform="translate(108.637 18.659) rotate(180)" fill="#f7a848"/>
        <rect id="Rectangle_744" data-name="Rectangle 744" width="0.98" height="28.929" transform="translate(137.786 19.434) rotate(180)" fill="#f7a848"/>
        <rect id="Rectangle_745" data-name="Rectangle 745" width="1.225" height="25.83" transform="translate(153.952 19.692) rotate(180)" fill="#f7a848"/>
        <rect id="Rectangle_746" data-name="Rectangle 746" width="6.369" height="30.221" transform="translate(168.894 20.209) rotate(180)" fill="#f7a848"/>
        <path id="Path_1183" data-name="Path 1183" d="M498.041,490.169l123.9,74.39-82.955,1.55-86.013-65.091Z" transform="translate(-456.029 -520.845)" fill="#f6f6f6" opacity="0.3"/>
      </g>
    </g>
    <g id="Group_698" data-name="Group 698" transform="translate(553.927 633.984)">
      <rect id="Rectangle_748" data-name="Rectangle 748" width="165.91" height="15.824" transform="translate(165.91 15.824) rotate(180)" fill="#ffce55"/>
      <g id="Group_697" data-name="Group 697" transform="translate(0 0)" clip-path="url(#clip-path-3)">
        <rect id="Rectangle_749" data-name="Rectangle 749" width="25.356" height="78.064" transform="translate(25.356 55.382) rotate(180)" fill="#f7a848"/>
        <rect id="Rectangle_750" data-name="Rectangle 750" width="16.166" height="66.103" transform="translate(44.952 39.559) rotate(180)" fill="#f7a848"/>
        <rect id="Rectangle_751" data-name="Rectangle 751" width="10.288" height="49.762" transform="translate(59.158 23.735) rotate(180)" fill="#f7a848"/>
        <rect id="Rectangle_752" data-name="Rectangle 752" width="4.899" height="23.735" transform="translate(66.507 15.824) rotate(180)" fill="#f7a848"/>
        <rect id="Rectangle_753" data-name="Rectangle 753" width="7.838" height="30.594" transform="translate(78.264 23.735) rotate(180)" fill="#f7a848"/>
        <rect id="Rectangle_754" data-name="Rectangle 754" width="2.658" height="23.247" transform="translate(85.613 19.692) rotate(180)" fill="#f7a848"/>
        <rect id="Rectangle_755" data-name="Rectangle 755" width="0.98" height="22.214" transform="translate(108.637 18.659) rotate(180)" fill="#f7a848"/>
        <rect id="Rectangle_756" data-name="Rectangle 756" width="0.98" height="28.929" transform="translate(137.786 19.434) rotate(180)" fill="#f7a848"/>
        <rect id="Rectangle_757" data-name="Rectangle 757" width="1.225" height="25.83" transform="translate(153.952 19.692) rotate(180)" fill="#f7a848"/>
        <rect id="Rectangle_758" data-name="Rectangle 758" width="6.369" height="30.221" transform="translate(168.894 20.208) rotate(180)" fill="#f7a848"/>
        <path id="Path_1184" data-name="Path 1184" d="M475.329,478.544l123.9,74.39-82.955,1.55-86.013-65.091Z" transform="translate(-433.316 -509.22)" fill="#f6f6f6" opacity="0.3"/>
      </g>
    </g>
    <g id="Group_700" data-name="Group 700" transform="translate(572.178 618.16)">
      <rect id="Rectangle_760" data-name="Rectangle 760" width="165.91" height="15.823" transform="translate(165.91 15.823) rotate(180)" fill="#ffce55"/>
      <g id="Group_699" data-name="Group 699" transform="translate(0 0)" clip-path="url(#clip-path-5)">
        <rect id="Rectangle_761" data-name="Rectangle 761" width="25.356" height="78.064" transform="translate(25.356 55.382) rotate(180)" fill="#f7a848"/>
        <rect id="Rectangle_762" data-name="Rectangle 762" width="16.166" height="66.103" transform="translate(44.952 39.559) rotate(180)" fill="#f7a848"/>
        <rect id="Rectangle_763" data-name="Rectangle 763" width="10.288" height="49.762" transform="translate(59.158 23.735) rotate(180)" fill="#f7a848"/>
        <rect id="Rectangle_764" data-name="Rectangle 764" width="4.899" height="23.735" transform="translate(66.507 15.823) rotate(180)" fill="#f7a848"/>
        <rect id="Rectangle_765" data-name="Rectangle 765" width="7.838" height="30.594" transform="translate(78.264 23.735) rotate(180)" fill="#f7a848"/>
        <rect id="Rectangle_766" data-name="Rectangle 766" width="2.658" height="23.247" transform="translate(85.613 19.692) rotate(180)" fill="#f7a848"/>
        <rect id="Rectangle_767" data-name="Rectangle 767" width="0.98" height="22.214" transform="translate(108.637 18.659) rotate(180)" fill="#f7a848"/>
        <rect id="Rectangle_768" data-name="Rectangle 768" width="0.98" height="28.929" transform="translate(137.786 19.433) rotate(180)" fill="#f7a848"/>
        <rect id="Rectangle_769" data-name="Rectangle 769" width="1.225" height="25.83" transform="translate(153.952 19.692) rotate(180)" fill="#f7a848"/>
        <rect id="Rectangle_770" data-name="Rectangle 770" width="6.369" height="30.221" transform="translate(168.894 20.208) rotate(180)" fill="#f7a848"/>
        <path id="Path_1185" data-name="Path 1185" d="M488.737,466.919l123.9,74.39-82.955,1.55-86.013-65.091Z" transform="translate(-446.725 -497.596)" fill="#f6f6f6" opacity="0.3"/>
      </g>
    </g>
    <g id="Group_702" data-name="Group 702" transform="translate(549.929 602.337)">
      <rect id="Rectangle_772" data-name="Rectangle 772" width="165.91" height="15.824" transform="translate(165.91 15.824) rotate(180)" fill="#ffce55"/>
      <g id="Group_701" data-name="Group 701" transform="translate(0 0)" clip-path="url(#clip-path-3)">
        <rect id="Rectangle_773" data-name="Rectangle 773" width="25.356" height="78.064" transform="translate(25.356 55.382) rotate(180)" fill="#f7a848"/>
        <rect id="Rectangle_774" data-name="Rectangle 774" width="16.166" height="66.103" transform="translate(44.952 39.559) rotate(180)" fill="#f7a848"/>
        <rect id="Rectangle_775" data-name="Rectangle 775" width="10.288" height="49.762" transform="translate(59.158 23.735) rotate(180)" fill="#f7a848"/>
        <rect id="Rectangle_776" data-name="Rectangle 776" width="4.899" height="23.735" transform="translate(66.507 15.823) rotate(180)" fill="#f7a848"/>
        <rect id="Rectangle_777" data-name="Rectangle 777" width="7.838" height="30.594" transform="translate(78.264 23.735) rotate(180)" fill="#f7a848"/>
        <rect id="Rectangle_778" data-name="Rectangle 778" width="2.658" height="23.247" transform="translate(85.612 19.692) rotate(180)" fill="#f7a848"/>
        <rect id="Rectangle_779" data-name="Rectangle 779" width="0.98" height="22.214" transform="translate(108.637 18.659) rotate(180)" fill="#f7a848"/>
        <rect id="Rectangle_780" data-name="Rectangle 780" width="0.98" height="28.929" transform="translate(137.786 19.433) rotate(180)" fill="#f7a848"/>
        <rect id="Rectangle_781" data-name="Rectangle 781" width="1.225" height="25.83" transform="translate(153.952 19.692) rotate(180)" fill="#f7a848"/>
        <rect id="Rectangle_782" data-name="Rectangle 782" width="6.369" height="30.221" transform="translate(168.894 20.208) rotate(180)" fill="#f7a848"/>
        <path id="Path_1186" data-name="Path 1186" d="M472.392,455.294l123.9,74.39-82.955,1.55-86.013-65.092Z" transform="translate(-430.379 -485.971)" fill="#f6f6f6" opacity="0.3"/>
      </g>
    </g>
    <path id="Path_1187" data-name="Path 1187" d="M455.458,258.157l7.15-7.065a36.182,36.182,0,0,1,51.169.31h0a46.234,46.234,0,0,1-.4,65.384h0l-58.63,57.924-57.924-58.63h0a46.236,46.236,0,0,1,.4-65.384h0a36.182,36.182,0,0,1,51.169.31Z" transform="translate(103.717 38.698)" fill="#e3483c"/>
    <path id="Path_1188" data-name="Path 1188" d="M335.006,487q-3.6-2.824-10.8-4.492l-10.952-2.545q-6.34-1.46-8.294-2.554a5.346,5.346,0,0,1-3.053-4.982,6.427,6.427,0,0,1,3.06-5.68,14.788,14.788,0,0,1,8.236-2.057,17.223,17.223,0,0,1,7.768,1.54,8.636,8.636,0,0,1,4.21,4.3,6.214,6.214,0,1,0,11.33-5.1,17.354,17.354,0,0,0-5.4-6.4,26.307,26.307,0,0,0-12.165-4.846l-.014-4.284a3.817,3.817,0,0,0-7.635.024l.014,4.028q-9.919.612-15.34,5.51a17.919,17.919,0,0,0-6.121,13.94q.031,9.18,6.348,13.476,3.73,2.569,13.691,4.736l6.757,1.459a29.652,29.652,0,0,1,8.668,2.89,5.333,5.333,0,0,1,2.746,4.772q.016,5.288-5.55,7.254a23.914,23.914,0,0,1-7.643,1.04q-7.861.027-11.114-3.814a8.874,8.874,0,0,1-1.443-2.53,6.125,6.125,0,0,0-5.759-3.834h-.165a6.184,6.184,0,0,0-5.7,8.645,17.907,17.907,0,0,0,5.341,6.651c3.942,3.086,9.121,4.855,15.5,5.344l.025,7.468a3.817,3.817,0,1,0,7.633-.026l-.025-7.465c6.241-.532,11.22-2.363,14.9-5.53a17.893,17.893,0,0,0,6.561-14.216Q340.6,491.381,335.006,487Z" transform="translate(69.899 113.042)" fill="#f7a848"/>
    <path id="Path_1189" data-name="Path 1189" d="M513.232,494.27l17.552-12.421-8.8-25.315,17.161,7.318,4.5,21.67Z" transform="translate(150.579 116.814)" fill="#f7a848"/>
  </g>
</svg>
