<svg xmlns="http://www.w3.org/2000/svg" xmlns:xlink="http://www.w3.org/1999/xlink" viewBox="0 0 1802.59 551.44"><defs><linearGradient id="linear-gradient" x1="342.44" y1="663.23" x2="342.56" y2="664.55" gradientTransform="matrix(10.3, 0, 0, -143.12, -3119.85, 95459.8)" gradientUnits="userSpaceOnUse"><stop offset="0" stop-color="#a3897a"/><stop offset="1" stop-color="#b0485d"/></linearGradient><linearGradient id="linear-gradient-2" x1="342.51" y1="663.07" x2="342.51" y2="662.57" gradientTransform="matrix(86.97, 0, 0, -61.66, -29381.99, 41380.59)" gradientUnits="userSpaceOnUse"><stop offset="0" stop-color="#fff"/><stop offset="1" stop-color="#dcccca"/></linearGradient><linearGradient id="linear-gradient-3" x1="342.39" y1="664.99" x2="342.61" y2="664.03" gradientTransform="matrix(86.97, 0, 0, -361.36, -29380.63, 240378.62)" gradientUnits="userSpaceOnUse"><stop offset="0" stop-color="#008d36"/><stop offset="0" stop-color="#33b194"/><stop offset="1" stop-color="#003e46"/></linearGradient><linearGradient id="linear-gradient-4" x1="341.05" y1="664.85" x2="343.21" y2="664.41" gradientTransform="matrix(57.63, 0, 0, -467.79, -19331.86, 311103.7)" xlink:href="#linear-gradient-3"/><linearGradient id="linear-gradient-5" x1="342.51" y1="664.89" x2="342.51" y2="663.43" gradientTransform="matrix(293.54, 0, 0, -195.04, -99569.88, 129983.61)" xlink:href="#linear-gradient-3"/><linearGradient id="linear-gradient-6" x1="342.51" y1="665.05" x2="342.51" y2="663.59" gradientTransform="matrix(394.41, 0, 0, -262.06, -134890.97, 174503.39)" xlink:href="#linear-gradient-3"/><linearGradient id="linear-gradient-7" x1="342.56" y1="664.36" x2="342.58" y2="665.5" gradientTransform="matrix(41.6, 0, 0, -47.95, -13461.47, 32274.57)" gradientUnits="userSpaceOnUse"><stop offset="0" stop-color="#fad6c7"/><stop offset="1" stop-color="#e4857f"/></linearGradient><linearGradient id="linear-gradient-8" x1="342.56" y1="664.42" x2="342.59" y2="665.55" gradientTransform="matrix(41.6, 0, 0, -47.95, -13513.35, 32274.57)" xlink:href="#linear-gradient-7"/><linearGradient id="linear-gradient-9" x1="342.51" y1="661.67" x2="342.51" y2="662.28" gradientTransform="matrix(88.97, 0, 0, -43.1, -29766.28, 28747.61)" xlink:href="#linear-gradient-7"/><linearGradient id="linear-gradient-10" x1="341.76" y1="663.3" x2="342.86" y2="661.83" gradientTransform="matrix(41.28, 0, 0, -51.11, -13420.42, 34076.1)" xlink:href="#linear-gradient-2"/><linearGradient id="linear-gradient-11" x1="342.52" y1="664.05" x2="342.48" y2="664.64" gradientTransform="matrix(96.29, 0, 0, -258.19, -32212.52, 171717.43)" xlink:href="#linear-gradient-7"/><linearGradient id="linear-gradient-12" x1="342" y1="677.66" x2="341.98" y2="678.19" gradientTransform="matrix(44.41, 0, 0, -58.89, -14487.35, 39214.51)" xlink:href="#linear-gradient-7"/><linearGradient id="linear-gradient-13" x1="342.07" y1="664.28" x2="342.57" y2="663.87" gradientTransform="matrix(106.71, 0, 0, -165.59, -35773.69, 110206.94)" xlink:href="#linear-gradient-2"/><linearGradient id="linear-gradient-14" x1="345.87" y1="664.01" x2="345.51" y2="662.87" gradientTransform="matrix(0, 24.78, 55.73, 0, -36404.74, -8310.04)" xlink:href="#linear-gradient-3"/><linearGradient id="linear-gradient-15" x1="342.51" y1="659.96" x2="342.51" y2="658.1" gradientTransform="matrix(22.11, 0, 0, -22.11, -7026.84, 14830.98)" xlink:href="#linear-gradient-3"/><linearGradient id="linear-gradient-16" x1="341.46" y1="663.84" x2="341.1" y2="662.7" gradientTransform="matrix(24.78, 0, 0, -55.73, -7944.97, 37188.47)" xlink:href="#linear-gradient-3"/><linearGradient id="linear-gradient-17" x1="342.51" y1="660.24" x2="342.51" y2="658.38" gradientTransform="matrix(22.12, 0, 0, -22.12, -7068.86, 14840.14)" xlink:href="#linear-gradient-3"/><linearGradient id="linear-gradient-18" x1="345.18" y1="663.77" x2="344.82" y2="662.63" gradientTransform="matrix(0, 24.78, 55.73, 0, -36348.41, -8289.21)" xlink:href="#linear-gradient-3"/><linearGradient id="linear-gradient-19" x1="343.19" y1="656.73" x2="342.78" y2="658.25" gradientTransform="matrix(22.12, 0, 0, -22.12, -6983.6, 14837.03)" gradientUnits="userSpaceOnUse"><stop offset="0" stop-color="#008d36"/><stop offset="1" stop-color="#003e46"/></linearGradient><linearGradient id="linear-gradient-20" x1="299.16" y1="683.57" x2="300.71" y2="682.6" gradientTransform="matrix(18.03, 0, 0, -14.51, -5583.31, 9781.13)" gradientUnits="userSpaceOnUse"><stop offset="0" stop-color="#ffef26"/><stop offset="0.02" stop-color="#fee921"/><stop offset="0.1" stop-color="#fdd70e"/><stop offset="0.19" stop-color="#fdcb03"/><stop offset="0.28" stop-color="#fdc800"/><stop offset="0.67" stop-color="#f18f34"/><stop offset="0.89" stop-color="#e95f32"/><stop offset="1" stop-color="#e3312d"/></linearGradient><linearGradient id="linear-gradient-21" x1="342.05" y1="664.08" x2="341.81" y2="663.33" gradientTransform="matrix(37.64, 0, 0, -84.66, -12337.47, 56416.68)" xlink:href="#linear-gradient-3"/><linearGradient id="linear-gradient-22" x1="342.51" y1="661.75" x2="342.51" y2="660.52" gradientTransform="matrix(33.61, 0, 0, -33.61, -10981.21, 22477.24)" xlink:href="#linear-gradient-3"/><linearGradient id="linear-gradient-23" x1="343.58" y1="664.17" x2="343.34" y2="663.41" gradientTransform="matrix(0, 37.62, 84.62, 0, -55566.32, -12649.42)" xlink:href="#linear-gradient-3"/><linearGradient id="linear-gradient-24" x1="342.51" y1="662.1" x2="342.51" y2="660.87" gradientTransform="matrix(33.61, 0, 0, -33.61, -10941.31, 22489.23)" xlink:href="#linear-gradient-3"/><linearGradient id="linear-gradient-25" x1="344.78" y1="664.48" x2="344.54" y2="663.72" gradientTransform="matrix(0, 37.64, 84.66, 0, -55578.95, -12690.85)" xlink:href="#linear-gradient-3"/><linearGradient id="linear-gradient-26" x1="342.51" y1="662.36" x2="342.51" y2="661.14" gradientTransform="matrix(33.6, 0, 0, -33.6, -10905.13, 22493.65)" xlink:href="#linear-gradient-3"/><linearGradient id="linear-gradient-27" x1="342.5" y1="663.68" x2="342.52" y2="665.11" gradientTransform="matrix(183.31, 0, 0, -199.59, -61843.95, 132816.79)" xlink:href="#linear-gradient-7"/><linearGradient id="linear-gradient-28" x1="342.49" y1="662.02" x2="342.52" y2="663.15" gradientTransform="matrix(49.89, 0, 0, -57.52, -16129.17, 38628.02)" xlink:href="#linear-gradient-7"/><linearGradient id="linear-gradient-29" x1="342.51" y1="662.05" x2="342.53" y2="663.18" gradientTransform="matrix(49.9, 0, 0, -57.52, -16229.69, 38628.02)" xlink:href="#linear-gradient-7"/><linearGradient id="linear-gradient-30" x1="342.52" y1="662" x2="342.5" y2="662.59" gradientTransform="matrix(36.82, 0, 0, -48.83, -11694.28, 32481.1)" xlink:href="#linear-gradient-7"/><linearGradient id="linear-gradient-31" x1="342.47" y1="664.09" x2="342.52" y2="663.14" gradientTransform="matrix(50.18, 0, 0, -77.07, -16245.62, 51327.71)" xlink:href="#linear-gradient-2"/><linearGradient id="linear-gradient-32" x1="342.42" y1="664.45" x2="342.55" y2="663.02" gradientTransform="matrix(85.7, 0, 0, -142.06, -28442.97, 94560.73)" xlink:href="#linear-gradient-2"/><linearGradient id="linear-gradient-33" x1="342.44" y1="663.75" x2="342.53" y2="662.49" gradientTransform="matrix(25.71, 0, 0, -58.14, -7941.08, 38735.78)" xlink:href="#linear-gradient-2"/><linearGradient id="linear-gradient-34" x1="342.19" y1="663.38" x2="342.83" y2="661.79" gradientTransform="matrix(76.75, 0, 0, -55.45, -25230.38, 36909.28)" xlink:href="#linear-gradient-3"/></defs><g id="Layer_2" data-name="Layer 2"><g id="Layer_1-2" data-name="Layer 1"><path id="Path_3231" data-name="Path 3231" d="M225.9,551.44S362.84,29.29,734.52,72.13c169.86,19.58,294,237.05,426.51,288.63,156.86,61.08,315.68-43.32,441.4-29.36,231.51,25.7,89.76,129.85,163.64,132.85s12.8,79,12.8,79Z" fill="#c1e7df"/><rect id="Rectangle_480" data-name="Rectangle 480" x="618.69" y="178.32" width="178.28" height="16.12" fill="#ffce55"/><rect x="618.69" y="178.32" width="178.28" height="16.12" fill="none"/><rect id="Rectangle_481" data-name="Rectangle 481" x="769.73" y="155.21" width="27.25" height="79.55" fill="#f7a848"/><rect id="Rectangle_482" data-name="Rectangle 482" x="748.67" y="151.28" width="17.37" height="67.36" fill="#f7a848"/><rect id="Rectangle_483" data-name="Rectangle 483" x="733.4" y="151.8" width="11.06" height="50.71" fill="#f7a848"/><rect id="Rectangle_484" data-name="Rectangle 484" x="725.51" y="170.26" width="5.26" height="24.19" fill="#f7a848"/><rect id="Rectangle_485" data-name="Rectangle 485" x="712.87" y="171.34" width="8.42" height="31.17" fill="#f7a848"/><rect id="Rectangle_486" data-name="Rectangle 486" x="704.98" y="174.7" width="2.86" height="23.69" fill="#f7a848"/><rect id="Rectangle_487" data-name="Rectangle 487" x="680.24" y="174.7" width="1.05" height="22.64" fill="#f7a848"/><rect id="Rectangle_488" data-name="Rectangle 488" x="648.92" y="168.65" width="1.05" height="29.48" fill="#f7a848"/><rect id="Rectangle_489" data-name="Rectangle 489" x="631.54" y="172.07" width="1.32" height="26.32" fill="#f7a848"/><rect id="Rectangle_490" data-name="Rectangle 490" x="615.49" y="168.12" width="6.84" height="30.8" fill="#f7a848"/><path id="Path_925" data-name="Path 925" d="M751.83,147.06l-133.14,75.8,89.14,1.58,92.43-66.32Z" fill="#f6f6f6" opacity="0.3" style="isolation:isolate"/><rect id="Rectangle_492" data-name="Rectangle 492" x="651.92" y="162.2" width="178.28" height="16.12" fill="#ffce55"/><rect x="651.92" y="162.2" width="178.28" height="16.12" fill="none"/><rect id="Rectangle_493" data-name="Rectangle 493" x="802.95" y="139.09" width="27.25" height="79.55" fill="#f7a848"/><rect id="Rectangle_494" data-name="Rectangle 494" x="781.89" y="135.15" width="17.37" height="67.36" fill="#f7a848"/><rect id="Rectangle_495" data-name="Rectangle 495" x="766.63" y="135.68" width="11.06" height="50.71" fill="#f7a848"/><rect id="Rectangle_496" data-name="Rectangle 496" x="758.73" y="154.14" width="5.26" height="24.19" fill="#f7a848"/><rect id="Rectangle_497" data-name="Rectangle 497" x="746.1" y="155.21" width="8.42" height="31.17" fill="#f7a848"/><rect id="Rectangle_498" data-name="Rectangle 498" x="738.2" y="158.58" width="2.86" height="23.69" fill="#f7a848"/><rect id="Rectangle_499" data-name="Rectangle 499" x="713.46" y="158.58" width="1.05" height="22.64" fill="#f7a848"/><rect id="Rectangle_500" data-name="Rectangle 500" x="682.14" y="152.52" width="1.05" height="29.48" fill="#f7a848"/><rect id="Rectangle_501" data-name="Rectangle 501" x="664.76" y="155.95" width="1.32" height="26.32" fill="#f7a848"/><rect id="Rectangle_502" data-name="Rectangle 502" x="648.71" y="152" width="6.84" height="30.8" fill="#f7a848"/><path id="Path_926" data-name="Path 926" d="M785.05,130.94l-133.13,75.8,89.14,1.58L833.48,142Z" fill="#f6f6f6" opacity="0.3" style="isolation:isolate"/><rect x="632.3" y="146.08" width="178.28" height="16.12" fill="none"/><rect id="Rectangle_504" data-name="Rectangle 504" x="632.3" y="146.08" width="178.28" height="16.12" fill="#ffce55"/><rect id="Rectangle_505" data-name="Rectangle 505" x="783.34" y="122.96" width="27.25" height="79.55" fill="#f7a848"/><rect id="Rectangle_506" data-name="Rectangle 506" x="762.28" y="119.03" width="17.37" height="67.36" fill="#f7a848"/><rect id="Rectangle_507" data-name="Rectangle 507" x="747.01" y="119.55" width="11.06" height="50.71" fill="#f7a848"/><rect id="Rectangle_508" data-name="Rectangle 508" x="739.12" y="138.01" width="5.26" height="24.19" fill="#f7a848"/><rect id="Rectangle_509" data-name="Rectangle 509" x="726.48" y="139.09" width="8.42" height="31.17" fill="#f7a848"/><rect id="Rectangle_510" data-name="Rectangle 510" x="718.59" y="142.45" width="2.86" height="23.69" fill="#f7a848"/><rect id="Rectangle_511" data-name="Rectangle 511" x="693.85" y="142.45" width="1.05" height="22.64" fill="#f7a848"/><rect id="Rectangle_512" data-name="Rectangle 512" x="662.52" y="136.4" width="1.05" height="29.48" fill="#f7a848"/><rect id="Rectangle_513" data-name="Rectangle 513" x="645.15" y="139.82" width="1.32" height="26.32" fill="#f7a848"/><rect id="Rectangle_514" data-name="Rectangle 514" x="629.1" y="135.87" width="6.84" height="30.8" fill="#f7a848"/><path id="Path_927" data-name="Path 927" d="M765.44,114.82,632.3,190.62l89.14,1.58,92.43-66.33Z" fill="#f6f6f6" opacity="0.3" style="isolation:isolate"/><rect id="Rectangle_516" data-name="Rectangle 516" x="656.21" y="129.95" width="178.28" height="16.12" fill="#ffce55"/><rect x="656.21" y="129.95" width="178.28" height="16.12" fill="none"/><rect id="Rectangle_517" data-name="Rectangle 517" x="807.24" y="106.84" width="27.25" height="79.55" fill="#f7a848"/><rect id="Rectangle_518" data-name="Rectangle 518" x="786.19" y="102.9" width="17.37" height="67.36" fill="#f7a848"/><rect id="Rectangle_519" data-name="Rectangle 519" x="770.92" y="103.43" width="11.06" height="50.71" fill="#f7a848"/><rect id="Rectangle_520" data-name="Rectangle 520" x="763.02" y="121.89" width="5.26" height="24.19" fill="#f7a848"/><rect id="Rectangle_521" data-name="Rectangle 521" x="750.39" y="122.96" width="8.42" height="31.17" fill="#f7a848"/><rect id="Rectangle_522" data-name="Rectangle 522" x="742.49" y="126.33" width="2.86" height="23.69" fill="#f7a848"/><rect id="Rectangle_523" data-name="Rectangle 523" x="717.75" y="126.33" width="1.05" height="22.64" fill="#f7a848"/><rect id="Rectangle_524" data-name="Rectangle 524" x="686.43" y="120.28" width="1.05" height="29.48" fill="#f7a848"/><rect id="Rectangle_525" data-name="Rectangle 525" x="669.06" y="123.7" width="1.32" height="26.32" fill="#f7a848"/><rect id="Rectangle_526" data-name="Rectangle 526" x="653" y="119.75" width="6.84" height="30.8" fill="#f7a848"/><path id="Path_928" data-name="Path 928" d="M789.34,98.69l-133.13,75.8,89.14,1.58,92.42-66.33Z" fill="#f6f6f6" opacity="0.3" style="isolation:isolate"/><rect id="Rectangle_528" data-name="Rectangle 528" x="669.47" y="113.83" width="178.28" height="16.12" fill="#ffce55"/><rect x="669.47" y="113.83" width="178.28" height="16.12" fill="none"/><rect id="Rectangle_529" data-name="Rectangle 529" x="820.5" y="90.71" width="27.25" height="79.55" fill="#f7a848"/><rect id="Rectangle_530" data-name="Rectangle 530" x="799.44" y="86.78" width="17.37" height="67.36" fill="#f7a848"/><rect id="Rectangle_531" data-name="Rectangle 531" x="784.18" y="87.31" width="11.06" height="50.71" fill="#f7a848"/><rect id="Rectangle_532" data-name="Rectangle 532" x="776.28" y="105.77" width="5.26" height="24.19" fill="#f7a848"/><rect id="Rectangle_533" data-name="Rectangle 533" x="763.65" y="106.84" width="8.42" height="31.17" fill="#f7a848"/><rect id="Rectangle_534" data-name="Rectangle 534" x="755.75" y="110.2" width="2.86" height="23.69" fill="#f7a848"/><rect id="Rectangle_535" data-name="Rectangle 535" x="731.01" y="110.2" width="1.05" height="22.64" fill="#f7a848"/><rect id="Rectangle_536" data-name="Rectangle 536" x="699.69" y="104.15" width="1.05" height="29.48" fill="#f7a848"/><rect id="Rectangle_537" data-name="Rectangle 537" x="682.31" y="107.57" width="1.32" height="26.32" fill="#f7a848"/><rect id="Rectangle_538" data-name="Rectangle 538" x="666.26" y="103.62" width="6.84" height="30.8" fill="#f7a848"/><path id="Path_929" data-name="Path 929" d="M802.6,82.57l-133.14,75.8L758.6,160,851,93.62Z" fill="#f6f6f6" opacity="0.3" style="isolation:isolate"/><rect id="Rectangle_540" data-name="Rectangle 540" x="611.69" y="97.7" width="178.28" height="16.12" fill="#ffce55"/><rect x="611.69" y="97.7" width="178.28" height="16.12" fill="none"/><rect id="Rectangle_541" data-name="Rectangle 541" x="762.72" y="74.59" width="27.25" height="79.55" fill="#f7a848"/><rect id="Rectangle_542" data-name="Rectangle 542" x="741.66" y="70.66" width="17.37" height="67.36" fill="#f7a848"/><rect id="Rectangle_543" data-name="Rectangle 543" x="726.4" y="71.18" width="11.06" height="50.71" fill="#f7a848"/><rect id="Rectangle_544" data-name="Rectangle 544" x="718.5" y="89.64" width="5.26" height="24.19" fill="#f7a848"/><rect id="Rectangle_545" data-name="Rectangle 545" x="705.87" y="90.71" width="8.42" height="31.17" fill="#f7a848"/><rect id="Rectangle_546" data-name="Rectangle 546" x="697.97" y="94.08" width="2.86" height="23.69" fill="#f7a848"/><rect id="Rectangle_547" data-name="Rectangle 547" x="673.23" y="94.08" width="1.05" height="22.64" fill="#f7a848"/><rect id="Rectangle_548" data-name="Rectangle 548" x="641.91" y="88.03" width="1.05" height="29.48" fill="#f7a848"/><rect id="Rectangle_549" data-name="Rectangle 549" x="624.54" y="91.45" width="1.32" height="26.32" fill="#f7a848"/><rect id="Rectangle_550" data-name="Rectangle 550" x="608.48" y="87.5" width="6.84" height="30.8" fill="#f7a848"/><path id="Path_930" data-name="Path 930" d="M744.82,66.44l-133.14,75.8,89.14,1.58L793.25,77.5Z" fill="#f6f6f6" opacity="0.3" style="isolation:isolate"/><rect id="Rectangle_552" data-name="Rectangle 552" x="647.43" y="81.58" width="178.28" height="16.12" fill="#ffce55"/><rect x="647.43" y="81.58" width="178.28" height="16.12" fill="none"/><rect id="Rectangle_553" data-name="Rectangle 553" x="798.47" y="58.47" width="27.25" height="79.55" fill="#f7a848"/><rect id="Rectangle_554" data-name="Rectangle 554" x="777.41" y="54.53" width="17.37" height="67.36" fill="#f7a848"/><rect id="Rectangle_555" data-name="Rectangle 555" x="762.14" y="55.06" width="11.06" height="50.71" fill="#f7a848"/><rect id="Rectangle_556" data-name="Rectangle 556" x="754.25" y="73.52" width="5.26" height="24.19" fill="#f7a848"/><rect id="Rectangle_557" data-name="Rectangle 557" x="741.61" y="74.59" width="8.42" height="31.17" fill="#f7a848"/><rect id="Rectangle_558" data-name="Rectangle 558" x="733.72" y="77.96" width="2.86" height="23.69" fill="#f7a848"/><rect id="Rectangle_559" data-name="Rectangle 559" x="708.97" y="77.96" width="1.05" height="22.64" fill="#f7a848"/><rect id="Rectangle_560" data-name="Rectangle 560" x="677.65" y="71.9" width="1.05" height="29.48" fill="#f7a848"/><rect id="Rectangle_561" data-name="Rectangle 561" x="660.28" y="75.32" width="1.32" height="26.32" fill="#f7a848"/><rect id="Rectangle_562" data-name="Rectangle 562" x="644.23" y="71.38" width="6.84" height="30.8" fill="#f7a848"/><path id="Path_931" data-name="Path 931" d="M780.57,50.32l-133.14,75.8,89.14,1.58L829,61.37Z" fill="#f6f6f6" opacity="0.3" style="isolation:isolate"/><rect id="Rectangle_467" data-name="Rectangle 467" x="402.49" y="366.95" width="10.3" height="143.12" fill="url(#linear-gradient)"/><path id="Path_954" data-name="Path 954" d="M407.64,540.9h0a29.34,29.34,0,0,1-27.46-19l-16-42.65h87l-16,42.65A29.32,29.32,0,0,1,407.64,540.9Z" fill="url(#linear-gradient-2)"/><rect id="Rectangle_567" data-name="Rectangle 567" x="364.15" y="85.85" width="86.97" height="361.36" rx="22.81" fill="url(#linear-gradient-3)"/><rect x="364.15" y="85.85" width="86.97" height="361.36" rx="22.81" fill="none"/><path id="Path_953" data-name="Path 953" d="M429.9,467.79c-2-1.39-49.3-34.49-50.3-70-.38-13.77,6-25.85,18.94-35.92,19.37-15.06,13.59-28.74,1.71-51.64-11.71-22.58-26.29-50.68,2.66-82,22.19-24,12.4-39.23,0-58.54-11.86-18.47-26.61-41.45-.07-70.86,11.89-13.17,17.2-26.95,15.81-41C416,30.71,389.18,10.56,388.91,10.36L396.55,0c1.29,1,31.59,23.63,34.92,56.51,1.8,17.82-4.61,35-19.05,51-20,22.1-10.56,36.75,1.34,55.29,12.28,19.12,27.56,42.93-1.4,74.23-22.81,24.66-12.06,45.38-.69,67.31,11,21.26,23.54,45.36-5.23,67.73-9.67,7.51-14.24,15.82-14,25.39.41,14.8,12.35,30.14,22.29,40.4a171.28,171.28,0,0,0,22.46,19.38Z" fill="url(#linear-gradient-4)"/><path id="Path_924" data-name="Path 924" d="M1095,514.06c8.48-14,14.19-27,17.49-38.9l-86,15.79,89.49-43.4a61.64,61.64,0,0,0-1.78-12.32l-36,3.73,32.47-13.62a47.44,47.44,0,0,0-8.21-12l-62.77,39.56,45.55-51.47c-9-3.87-19.56-5.63-31-5.09l-55.52,112.2,34.75-108.89a125.63,125.63,0,0,0-24.13,9.3c-4.25,2.15-8.15,3.95-11.79,5.48L981.85,516.58V419.67c-6.73,1.52-12,1.51-16,.31L949.24,526.1l6.88-113.72c-7.54-12.21-5.54-35-13-50.44l-9.59,110-1-121.9c-5.28-3.11-12.38-4.72-22.08-4.07-1.11.07-2.19.17-3.23.3L914.47,428l-22.64-53.46c-13.84,6.17-10.42,32.57-7.38,48.32l32.59,91s-19.94-65.18-30.43-60.18L902,521.7,865.11,457c-10.73,1.29-19,3.63-25.3,6.73L902,533.42l-76.27-57.2c-13.94,25.16,21,64.61,21,64.61h229.58c1.83-2.31,3.56-4.59,5.25-6.86l-49.93-15.19Z" fill="url(#linear-gradient-5)"/><path id="Path_961" data-name="Path 961" d="M28.19,502.87C16.8,484,9.13,466.54,4.69,450.59L120.24,471.8,0,413.48a82.81,82.81,0,0,1,2.4-16.56l48.39,5L7.16,383.64a64.61,64.61,0,0,1,11-16.15l84.33,53.15-61.2-69.15c12.12-5.2,26.29-7.57,41.72-6.84l74.59,150.77-46.7-146.31a168.79,168.79,0,0,1,32.42,12.49c5.7,2.88,11,5.31,15.84,7.36l21.06,137.28V376c9.05,2.05,16.05,2,21.51.42L224.07,519l-9.25-152.79c10.13-16.41,7.44-47,17.5-67.79L245.2,446.22l1.33-163.79c7.1-4.18,16.63-6.34,29.67-5.47,1.5.1,2.94.24,4.33.4l-9.75,109.83,30.43-71.82c18.6,8.29,14,43.76,9.92,64.93L267.34,502.55s26.8-87.58,40.89-80.86l-20.71,91.44,49.59-87c14.43,1.74,25.56,4.88,34,9.05l-83.59,93.69L390,452c18.73,33.8-28.19,86.82-28.19,86.82H53.33c-2.46-3.11-4.79-6.18-7.06-9.23l67.08-20.41Z" fill="url(#linear-gradient-6)"/><path id="Path_932" data-name="Path 932" d="M802.54,493.27l4.78,48h-41.6l31.11-13.33.3-4.14-4.39-30.48Z" fill="url(#linear-gradient-7)"/><path id="Path_933" data-name="Path 933" d="M805.52,523.23l1.8,18h-41.6l31.11-13.33.3-4.14Z" fill="#1d1d1b"/><path id="Path_934" data-name="Path 934" d="M755.77,493.27v48h-41.6l31.12-13.33.3-4.14,2.24-30.48Z" fill="url(#linear-gradient-8)"/><path id="Path_935" data-name="Path 935" d="M755.77,523.75v17.47h-41.6l31.12-13.33.3-4.14Z" fill="#1d1d1b"/><path id="Path_936" data-name="Path 936" d="M730.2,323.55l9.67,177.61h25.31l3.91-177.61Z" fill="#1d1d1b"/><path id="Path_937" data-name="Path 937" d="M739.87,320.69l47.36,180.47h24.91L786.82,323.55S757.42,276.18,739.87,320.69Z" fill="#3c3c3b"/><path id="Path_938" data-name="Path 938" d="M740,233c-4.44,2-10.57,3.58-19,4.35a41.07,41.07,0,0,1-20.17-3.33c-24-10.26-38.48-39.61-38.48-39.61h67.37l10.65,10.83L750.88,216S754.4,226.61,740,233Z" fill="url(#linear-gradient-9)"/><path id="Path_939" data-name="Path 939" d="M740.32,205.28,740,233l-.1,7.7L699,245.56l1.74-11.5,6-39.62h22.89Z" fill="url(#linear-gradient-10)"/><path id="Path_940" data-name="Path 940" d="M815.87,201a151.52,151.52,0,0,1-10,35.81,211.47,211.47,0,0,0-9.54,22.93s0,.06,0,.1c-6.18,17.47-12.53,42.08-9.47,63.66H730.2l-3.63-33.83v0l-5.63-52.3,4.62-22.76,3-14.8,12-12.46,18.51,7.08s26.72-3.16,24.6-36.51h0c-1.06-16.8-9.44-41.24-32.22-76.79l-26.64.41L747,65.35l15.31,9S827.39,121.69,815.87,201Z" fill="url(#linear-gradient-11)"/><path id="Path_952" data-name="Path 952" d="M715,201.83l.23-4.31L702.6,176.77C737.82,129,747,187.21,747,187.21l-20,29.6-9.93-16.25Z" fill="url(#linear-gradient-12)"/><path id="Path_955" data-name="Path 955" d="M721,178.05s-33.76,45-53.36,13.8,72.27-38.3,72.27-38.3L747,187.21l-6.46.16s-7.08-21.84-10.35-14.76,0,12,0,12Z" fill="#3c3c3b"/><path id="Path_956" data-name="Path 956" d="M827.65,216.81l-31.31,43,0,0v.06c-6.18,17.47-12.52,42.09-9.47,63.66H730.2l-9.26-8.3,5.63-25.53h0l-5.63-52.3,3.86-24.28s.27.6.76,1.52c3,5.73,14.69,24.37,25.7-4.74l7.8-15.44L783.66,158l32.21,43.1Z" fill="url(#linear-gradient-13)"/><rect id="Rectangle_468" data-name="Rectangle 468" x="517.36" y="237.83" width="60.21" height="29.03" transform="translate(11.1 527.49) rotate(-51.9)" fill="#33b194"/><rect id="Rectangle_469" data-name="Rectangle 469" x="519.54" y="240.03" width="55.73" height="24.78" transform="translate(11.02 527.48) rotate(-51.9)" fill="url(#linear-gradient-14)"/><path id="Path_909" data-name="Path 909" d="M555.58,259.89a11.06,11.06,0,1,1-1.87-15.52h0A11.06,11.06,0,0,1,555.58,259.89Z" fill="url(#linear-gradient-15)"/><path id="Path_910" data-name="Path 910" d="M549.54,249.13a6.67,6.67,0,0,0-2.45,1.37l-2.1,1.69a9.11,9.11,0,0,1-1.7,1.19,1.3,1.3,0,0,1-1.4-.17,1.55,1.55,0,0,1-.62-1.41,3.55,3.55,0,0,1,.83-1.86,4.12,4.12,0,0,1,1.45-1.24,2.08,2.08,0,0,1,1.43-.16,1.49,1.49,0,0,0,.71-2.89,4.11,4.11,0,0,0-2,.07A6.28,6.28,0,0,0,541,247.3l-.81-.63a.91.91,0,1,0-1.19,1.38l.07.06.76.59a5.86,5.86,0,0,0-1.23,3.71,4.31,4.31,0,0,0,1.72,3.22,3.63,3.63,0,0,0,3.48.8,10.05,10.05,0,0,0,2.93-1.88l1.27-1.06a7.27,7.27,0,0,1,1.83-1.21,1.3,1.3,0,0,1,1.31.19,1.75,1.75,0,0,1,.54,2.12,5.83,5.83,0,0,1-.93,1.6,3.29,3.29,0,0,1-2.37,1.53,1.81,1.81,0,0,1-.69-.1,1.47,1.47,0,0,0-1.57.52l0,0a1.49,1.49,0,0,0,.24,2.09,1.57,1.57,0,0,0,.55.27,4.27,4.27,0,0,0,2,0,6.69,6.69,0,0,0,3.3-2.14l1.42,1.1a.91.91,0,1,0,1.12-1.44l-1.41-1.1a6.15,6.15,0,0,0,1.16-3.63,4.3,4.3,0,0,0-1.71-3.34A3.65,3.65,0,0,0,549.54,249.13Z" fill="#f7a848"/><rect id="Rectangle_470" data-name="Rectangle 470" x="491.89" y="228.35" width="29.03" height="60.21" transform="translate(-52.54 154.43) rotate(-16.5)" fill="#33b194"/><rect id="Rectangle_471" data-name="Rectangle 471" x="494.04" y="230.68" width="24.78" height="55.73" transform="translate(-52.57 154.44) rotate(-16.5)" fill="url(#linear-gradient-16)"/><path id="Path_911" data-name="Path 911" d="M517.27,256.2a11.05,11.05,0,1,1-13.74-7.47h0A11.06,11.06,0,0,1,517.27,256.2Z" fill="url(#linear-gradient-17)"/><path id="Path_912" data-name="Path 912" d="M505,254.89a6.77,6.77,0,0,0-.3,2.79l.16,2.69a8.52,8.52,0,0,1,0,2.08,1.29,1.29,0,0,1-.94,1,1.54,1.54,0,0,1-1.51-.32,3.58,3.58,0,0,1-1-1.75,4.17,4.17,0,0,1-.17-1.89,2,2,0,0,1,.7-1.26,1.49,1.49,0,0,0-1.95-2.26,4.2,4.2,0,0,0-1.1,1.68,6.28,6.28,0,0,0-.28,3.13l-1,.3a.91.91,0,1,0,.53,1.75l.92-.28a5.87,5.87,0,0,0,2.31,3.15,4.3,4.3,0,0,0,3.63.46,3.62,3.62,0,0,0,2.66-2.38,10.06,10.06,0,0,0,.16-3.46l-.13-1.66a7.31,7.31,0,0,1,.08-2.19,1.26,1.26,0,0,1,.91-.95,1.73,1.73,0,0,1,2,.78,5.43,5.43,0,0,1,.76,1.68,3.28,3.28,0,0,1-.12,2.82,2.07,2.07,0,0,1-.48.5,1.47,1.47,0,0,0-.49,1.58v0a1.48,1.48,0,0,0,1.84,1,1.42,1.42,0,0,0,.54-.29,4.1,4.1,0,0,0,1.16-1.68,6.72,6.72,0,0,0,.18-3.92l1.71-.52a.91.91,0,1,0-.52-1.75l-1.72.51a6.19,6.19,0,0,0-2.28-3,4.3,4.3,0,0,0-3.72-.54A3.66,3.66,0,0,0,505,254.89Z" fill="#f7a848"/><rect id="Rectangle_472" data-name="Rectangle 472" x="561.57" y="241.69" width="60.21" height="29.03" transform="translate(82.41 651.64) rotate(-61.24)" fill="#33b194"/><rect id="Rectangle_473" data-name="Rectangle 473" x="563.77" y="243.9" width="55.73" height="24.78" transform="translate(82.32 651.65) rotate(-61.24)" fill="url(#linear-gradient-18)"/><path id="Path_913" data-name="Path 913" d="M600.93,262.33a11.06,11.06,0,1,1-4.38-15h0A11.07,11.07,0,0,1,600.93,262.33Z" fill="url(#linear-gradient-19)"/><path id="Path_914" data-name="Path 914" d="M593.21,252.7a6.63,6.63,0,0,0-2.19,1.75l-1.8,2a9.29,9.29,0,0,1-1.49,1.45,1.29,1.29,0,0,1-1.4.06,1.54,1.54,0,0,1-.84-1.3,3.62,3.62,0,0,1,.52-2,4.07,4.07,0,0,1,1.22-1.45,2.08,2.08,0,0,1,1.39-.39,1.49,1.49,0,0,0,.23-3,4.13,4.13,0,0,0-2,.4,6.3,6.3,0,0,0-2.43,2l-.9-.49a.92.92,0,0,0-.87,1.61l.85.46a5.88,5.88,0,0,0-.62,3.86,4.28,4.28,0,0,0,2.23,2.89,3.62,3.62,0,0,0,3.56.22,10.06,10.06,0,0,0,2.58-2.33l1.08-1.25a7.12,7.12,0,0,1,1.61-1.49,1.28,1.28,0,0,1,1.32,0,1.74,1.74,0,0,1,.89,2,5.65,5.65,0,0,1-.67,1.72,3.3,3.3,0,0,1-2.08,1.9,1.83,1.83,0,0,1-.7,0,1.49,1.49,0,0,0-1.47.77l0,0a1.49,1.49,0,0,0,.57,2,1.56,1.56,0,0,0,.59.18,4.33,4.33,0,0,0,2-.36,6.72,6.72,0,0,0,2.92-2.64l1.57.86a.93.93,0,0,0,1.23-.41.91.91,0,0,0-.36-1.2l-1.57-.86a6.13,6.13,0,0,0,.56-3.77,4.29,4.29,0,0,0-2.23-3A3.67,3.67,0,0,0,593.21,252.7Z" fill="url(#linear-gradient-20)"/><rect id="Rectangle_474" data-name="Rectangle 474" x="507.04" y="210.36" width="44.07" height="91.41" transform="translate(-41.42 114.55) rotate(-11.89)" fill="#33b194"/><rect id="Rectangle_475" data-name="Rectangle 475" x="510.31" y="213.88" width="37.64" height="84.66" transform="translate(-41.5 114.79) rotate(-11.92)" fill="url(#linear-gradient-21)"/><path id="Path_915" data-name="Path 915" d="M545.83,254a16.8,16.8,0,1,1-19.91-13h0A16.8,16.8,0,0,1,545.83,254Z" fill="url(#linear-gradient-22)"/><path id="Path_916" data-name="Path 916" d="M527.4,250.5a10.24,10.24,0,0,0-.79,4.19l-.08,4.1a13.3,13.3,0,0,1-.29,3.15,1.94,1.94,0,0,1-1.54,1.46,2.35,2.35,0,0,1-2.26-.66,5.42,5.42,0,0,1-1.35-2.78,6.41,6.41,0,0,1,0-2.89,3.18,3.18,0,0,1,1.22-1.82,2.27,2.27,0,0,0-2.67-3.66h0a6.42,6.42,0,0,0-1.88,2.41,9.6,9.6,0,0,0-.81,4.7l-1.52.33a1.39,1.39,0,1,0,.58,2.72l1.43-.31a8.89,8.89,0,0,0,3.12,5.05,6.51,6.51,0,0,0,5.43,1.13,5.53,5.53,0,0,0,4.33-3.27,15.25,15.25,0,0,0,.65-5.24l0-2.52a10.51,10.51,0,0,1,.38-3.3,1.92,1.92,0,0,1,1.49-1.34,2.65,2.65,0,0,1,3,1.43,8.67,8.67,0,0,1,.95,2.65c.4,1.86.22,3.28-.53,4.25a3.31,3.31,0,0,1-.79.7,2.2,2.2,0,0,0-.93,2.34v.06a2.26,2.26,0,0,0,2.66,1.75,2.16,2.16,0,0,0,.85-.37,6.56,6.56,0,0,0,2-2.4,10.23,10.23,0,0,0,.74-5.93l2.66-.57a1.38,1.38,0,0,0,1.06-1.65,1.39,1.39,0,0,0-1.65-1.07l-2.66.57a9.23,9.23,0,0,0-3.09-4.89,6.48,6.48,0,0,0-5.56-1.27A5.59,5.59,0,0,0,527.4,250.5Z" fill="#f7a848"/><rect id="Rectangle_476" data-name="Rectangle 476" x="524.44" y="245.73" width="91.42" height="44.08" transform="translate(166.79 751.57) rotate(-75.34)" fill="#33b194"/><rect id="Rectangle_477" data-name="Rectangle 477" x="527.8" y="249.09" width="84.62" height="37.62" transform="translate(166.63 751.64) rotate(-75.34)" fill="url(#linear-gradient-23)"/><path id="Path_917" data-name="Path 917" d="M586,273.4a16.8,16.8,0,1,1-12-20.5h0A16.8,16.8,0,0,1,586,273.4Z" fill="url(#linear-gradient-24)"/><path id="Path_918" data-name="Path 918" d="M571.1,262.05a10.1,10.1,0,0,0-2.58,3.39l-1.91,3.62a13.53,13.53,0,0,1-1.66,2.69,2,2,0,0,1-2,.61,2.32,2.32,0,0,1-1.72-1.6,5.33,5.33,0,0,1,0-3.09,6.15,6.15,0,0,1,1.26-2.59,3.13,3.13,0,0,1,1.9-1.09,2.26,2.26,0,1,0-.75-4.46,6.25,6.25,0,0,0-2.76,1.31,9.63,9.63,0,0,0-2.83,3.84l-1.51-.39a1.38,1.38,0,0,0-1.69,1,1.39,1.39,0,0,0,1,1.7l1.42.37a8.91,8.91,0,0,0,.53,5.91,6.49,6.49,0,0,0,4.35,3.44,5.51,5.51,0,0,0,5.33-1,15.06,15.06,0,0,0,2.93-4.39l1.14-2.24a10.73,10.73,0,0,1,1.82-2.79,2,2,0,0,1,1.94-.53,2.66,2.66,0,0,1,2,2.63,8.79,8.79,0,0,1-.34,2.79c-.48,1.85-1.27,3-2.37,3.56a3.29,3.29,0,0,1-1,.28,2.23,2.23,0,0,0-1.89,1.67v.06a2.25,2.25,0,0,0,2.52,2.81,6.44,6.44,0,0,0,2.83-1.27,10.23,10.23,0,0,0,3.32-5L583,274a1.39,1.39,0,1,0,.7-2.69l-2.63-.68a9.27,9.27,0,0,0-.57-5.76,6.53,6.53,0,0,0-4.4-3.63A5.57,5.57,0,0,0,571.1,262.05Z" fill="#f7a848"/><rect id="Rectangle_478" data-name="Rectangle 478" x="559.46" y="254.93" width="91.46" height="44.1" transform="translate(13.7 582.11) rotate(-51.88)" fill="#33b194"/><rect id="Rectangle_479" data-name="Rectangle 479" x="562.78" y="258.26" width="84.66" height="37.64" transform="translate(13.59 582.09) rotate(-51.88)" fill="url(#linear-gradient-25)"/><path id="Path_919" data-name="Path 919" d="M617.54,288.44a16.8,16.8,0,1,1-2.85-23.58h0a16.79,16.79,0,0,1,2.85,23.58Z" fill="url(#linear-gradient-26)"/><path id="Path_920" data-name="Path 920" d="M608.36,272.09a10.18,10.18,0,0,0-3.71,2.09l-3.2,2.56a13.39,13.39,0,0,1-2.6,1.8,1.94,1.94,0,0,1-2.11-.24,2.33,2.33,0,0,1-.94-2.16,5.33,5.33,0,0,1,1.26-2.82,6.3,6.3,0,0,1,2.19-1.88,3.16,3.16,0,0,1,2.18-.24,2.27,2.27,0,0,0,1.08-4.4,6.26,6.26,0,0,0-3,.11,9.53,9.53,0,0,0-4.13,2.4l-1.23-1a1.39,1.39,0,1,0-1.71,2.19l1.16.9a8.91,8.91,0,0,0-1.87,5.64,6.51,6.51,0,0,0,2.62,4.89,5.51,5.51,0,0,0,5.28,1.21,15.29,15.29,0,0,0,4.44-2.86l1.94-1.61a10.55,10.55,0,0,1,2.78-1.83,2,2,0,0,1,2,.28,2.65,2.65,0,0,1,.83,3.22,8.85,8.85,0,0,1-1.42,2.43c-1.17,1.5-2.37,2.28-3.59,2.33a3.39,3.39,0,0,1-1-.16,2.24,2.24,0,0,0-2.39.79l0,.05a2.25,2.25,0,0,0,.37,3.16,2.18,2.18,0,0,0,.83.42,6.54,6.54,0,0,0,3.11,0,10.22,10.22,0,0,0,5-3.24l2.15,1.67a1.39,1.39,0,0,0,1.71-2.19l-2.15-1.67a9.36,9.36,0,0,0,1.77-5.52,6.5,6.5,0,0,0-2.6-5.07A5.56,5.56,0,0,0,608.36,272.09Z" fill="#f7a848"/><path id="Path_921" data-name="Path 921" d="M555.08,540H506.84a76,76,0,0,1-72.77-54.09l-2.52-8.36a76,76,0,0,1,8.61-62.64l70.91-111.71-42.18-39.12,178.4,16.57-39.73,22.55,64.88,92.36a76,76,0,0,1,9.71,68.29l-8.48,24.76A76,76,0,0,1,654.24,519h0a76,76,0,0,1-52.47,21Z" fill="#7f7066"/><path id="Path_922" data-name="Path 922" d="M591.72,431.22q-5.94-4.65-17.83-7.41l-18.07-4.2q-10.46-2.42-13.69-4.21a8.86,8.86,0,0,1-5-8.23,10.6,10.6,0,0,1,5.06-9.37q5.07-3.36,13.59-3.4A28.33,28.33,0,0,1,568.56,397a14.22,14.22,0,0,1,7,7.1,10.18,10.18,0,0,0,9.37,6c7.43,0,12.6-7.8,9.32-14.47a28.61,28.61,0,0,0-8.91-10.56,43.33,43.33,0,0,0-20.07-8l0-7.07a6.3,6.3,0,0,0-12.6,0l0,6.65q-16.36,1-25.32,9.09a29.58,29.58,0,0,0-10.1,23q.06,15.15,10.48,22.24,6.15,4.23,22.6,7.81l11.15,2.41q9.78,2.06,14.3,4.77a8.81,8.81,0,0,1,4.53,7.88q0,8.72-9.16,12a39.29,39.29,0,0,1-12.61,1.71q-13,0-18.34-6.29a14.33,14.33,0,0,1-2.38-4.18,10.1,10.1,0,0,0-9.5-6.32H528c-7.34,0-12.49,7.6-9.42,14.26a29.56,29.56,0,0,0,8.82,11c6.5,5.1,15.05,8,25.58,8.82l0,12.32a6.3,6.3,0,0,0,12.6,0l0-12.32c10.3-.88,18.52-3.9,24.59-9.13A29.53,29.53,0,0,0,601,452.2Q600.95,438.46,591.72,431.22Z" fill="#f7a848"/><path id="Path_923" data-name="Path 923" d="M615.19,308.62H505.06a3.25,3.25,0,0,1,0-6.49H615.19a3.25,3.25,0,0,1,.11,6.49Z" fill="#f7a848"/><path id="Path_3219" data-name="Path 3219" d="M1022.66,204.63l9.82-21.62-16.72,5.16-4.6,9.11-11.43,6.3s-13.92,11.22-33.27-.29c-7.94-4.73-16.8-13.28-26-28h0l-17-6.6-2.49-16.13H911l-7.81,15.24-25.53,13.14s-48.56,96.94-18.86,149.87L856.89,343l-5-4.18V346l16,6.1,8.37-15.62.77-26.66h64l11.05-9.14-8.26-60.9-.87-6.51a68.54,68.54,0,0,0,16.39,8.15c16.27,5.5,40.14,5.81,49.65-33.12Z" fill="url(#linear-gradient-27)"/><path id="Path_3220" data-name="Path 3220" d="M935,482.38V539.9h49.89l-37.32-16-.36-5-2.69-36.56Z" fill="url(#linear-gradient-28)"/><path id="Path_3221" data-name="Path 3221" d="M935,518.94v20.95h49.89l-37.32-16-.36-5Z" fill="#3c3c3b"/><path id="Path_3222" data-name="Path 3222" d="M884.7,482.38V539.9H834.81l37.32-16,.36-5,2.69-36.56Z" fill="url(#linear-gradient-29)"/><path id="Path_3223" data-name="Path 3223" d="M936.12,150.47l-2.29-3.32V124.47c-51.29-20.92-30.27,29.91-30.27,29.91l30.27,13.86V150.47Z" fill="url(#linear-gradient-30)"/><path id="Path_3224" data-name="Path 3224" d="M946.24,115.43s3.18,14.22-11.55,14.22S918,138.84,918,138.84l-4.59,2.42v7.18s-8.76-16.89-7.34-3.18c1.18,8,7.09,9.78,7.09,9.78l-4.3,1.75-5.25-2.4s-21.33-35,2.69-36.68C931.39,116,946.24,115.43,946.24,115.43Z" fill="#3c3c3b"/><path id="Path_3225" data-name="Path 3225" d="M959.74,252.33a181.1,181.1,0,0,1-15.89-12.53c-14.87-13.12-33.68-34.05-25.66-50.7l22.25-13.84v0c9.2,14.73,18.06,23.28,26,28,0,0-5.65,23.32-7.08,38.15C958.87,246.46,958.87,250.5,959.74,252.33Z" fill="url(#linear-gradient-31)"/><path id="Path_3226" data-name="Path 3226" d="M877.66,180.92l-5.53,107.21-5.71,11.81,10.66,9.9h64l11-9.14L943,233.28l-2.54-58-17-6.6s-11.3,29.58-20.25-.89Z" fill="url(#linear-gradient-32)"/><path id="Path_3227" data-name="Path 3227" d="M877.66,180.92,852,228.72s14.6,12.18,22.72,10.09Z" fill="url(#linear-gradient-33)"/><path id="Path_3228" data-name="Path 3228" d="M955.16,488.09,941.07,309.84h-64L864.85,488.09l26.66,10.28L910,320.61l18.5,177.76Z" fill="#3c3c3b"/><path id="Path_3229" data-name="Path 3229" d="M884.7,518.94v20.95H834.81l37.32-16,.36-5Z" fill="#3c3c3b"/><path id="Path_3230" data-name="Path 3230" d="M1020.56,196.06a1.58,1.58,0,0,1-1.58-1.58,1.56,1.56,0,0,1,.67-1.28l73.6-52.3a1.57,1.57,0,0,1,1.82,2.57l-73.6,52.3A1.54,1.54,0,0,1,1020.56,196.06Z" fill="url(#linear-gradient-34)"/></g></g></svg>